<?xml version="1.0" encoding="UTF-8"?>
<!DOCTYPE svg PUBLIC "-//W3C//DTD SVG 1.1//EN" "http://www.w3.org/Graphics/SVG/1.1/DTD/svg11.dtd">
<!-- Creator: CorelDRAW 2021.5 -->
<svg xmlns="http://www.w3.org/2000/svg" xml:space="preserve" width="1080px" height="1080px" version="1.1" style="shape-rendering:geometricPrecision; text-rendering:geometricPrecision; image-rendering:optimizeQuality; fill-rule:evenodd; clip-rule:evenodd"
viewBox="0 0 1080 1080"
 xmlns:xlink="http://www.w3.org/1999/xlink"
 xmlns:xodm="http://www.corel.com/coreldraw/odm/2003">
 <defs>
  <style type="text/css">
   <![CDATA[
    .fil9 {fill:#FEFEFE}
    .fil6 {fill:#E6E7E8}
    .fil5 {fill:#BDBFC1}
    .fil4 {fill:#96989A}
    .fil3 {fill:#727376}
    .fil2 {fill:#4B4B4D}
    .fil0 {fill:#373435}
    .fil7 {fill:#FEFEFE;fill-rule:nonzero}
    .fil1 {fill:#FEFEFE;fill-rule:nonzero}
    .fil8 {fill:#D2D3D5;fill-rule:nonzero}
   ]]>
  </style>
 </defs>
 <g id="Camada_x0020_1">
  <metadata id="CorelCorpID_0Corel-Layer"/>
  <g id="_3108537373424">
   
    <path class="fil1" d="M770.911 183.303c0.111,2.583 0.111,7.168 0.111,13.646 0,5.822 -0.111,11.39 -0.111,13.646l17.869 0c0,-1.056 -0.037,-2.111 -0.037,-3.202 0,-1.093 0.037,-2.147 0.037,-3.203 -3.458,0.11 -7.715,0.11 -10.735,0.11 -0.037,-2.112 -0.037,-4.84 -0.037,-7.424 0,-6.186 0.072,-11.499 0.181,-13.573l-7.278 0z"/>
   <path class="fil1" d="M245.945 833.91c-1.025,0.076 -2.354,0.113 -3.796,0.113 -1.328,0 -2.657,-0.076 -3.454,-0.227 -0.076,0.645 -0.114,1.214 -0.114,1.822 0,5.087 3.644,8.085 13.058,8.085 8.693,0 12.337,-3.568 12.337,-8.731 0,-5.276 -3.074,-7.971 -11.122,-9.11 -6.074,-0.835 -6.757,-2.126 -6.757,-3.416 0,-1.405 1.101,-2.316 4.783,-2.316 4.859,0 5.922,1.139 5.922,2.771 0,0.228 0,0.532 -0.038,0.798 0.797,-0.039 2.126,-0.076 3.416,-0.076 1.291,0 2.544,0.037 3.341,0.076 0.038,-0.57 0.076,-1.101 0.076,-1.595 0,-4.859 -3.341,-7.933 -12.489,-7.933 -8.428,0 -12.299,3.568 -12.299,8.313 0,4.821 2.543,7.82 11.464,9.072 5.694,0.759 6.719,2.012 6.719,3.682 0,1.557 -1.139,2.506 -5.391,2.506 -4.365,0 -5.656,-0.912 -5.656,-3.455l0 -0.379z"/>
   <path id="_1" class="fil1" d="M268.873 814.702c0.152,3.53 0.152,8.199 0.152,14.235 0,6.073 0,10.515 -0.152,14.235l22.548 0c-0.076,-0.76 -0.076,-2.164 -0.076,-3.075 0,-1.139 0,-2.733 0.076,-3.492 -4.972,0.038 -10.932,0.076 -15.146,0.076l0 -5.163c5.011,0 10.667,0.038 14.767,0.114 0,-1.367 0,-4.555 0.038,-5.846 -4.176,0.114 -9.756,0.114 -14.805,0.114l0 -5.01c4.214,0 9.946,0.037 15.146,0.076 -0.076,-0.722 -0.076,-2.316 -0.076,-3.341 0,-0.949 0.038,-2.278 0.076,-2.923l-22.548 0z"/>
   <path id="_2" class="fil1" d="M315.602 826.166c1.214,-0.038 2.315,-0.038 3.53,-0.038 1.177,0 2.429,0 3.644,0.038 0.038,-0.608 0.076,-1.215 0.076,-1.784 0,-5.504 -3.796,-10.135 -12.831,-10.135 -9.452,0 -14.234,5.314 -14.234,14.576 0,10.135 5.352,14.804 14.234,14.804 8.465,0 12.945,-4.365 12.945,-10.932 0,-0.38 -0.038,-0.721 0,-1.101 -1.253,0.038 -2.506,0.038 -3.721,0.038 -1.176,0 -2.353,0 -3.568,-0.038l0 0.645c0,2.885 -1.746,4.783 -5.694,4.783 -4.441,0 -6.604,-2.239 -6.604,-8.389 0,-5.997 2.049,-7.858 6.339,-7.895 3.833,0 5.884,1.214 5.884,4.859l0 0.569z"/>
   <path id="_3" class="fil1" d="M335.379 828.557c0,-2.543 0,-5.162 0,-7.819 1.822,-0.076 4.479,-0.114 5.542,-0.114 3.606,0 5.314,0.721 5.314,4.024 0,2.657 -1.518,3.985 -4.593,3.985 -2.619,-0.038 -4.973,-0.038 -6.263,-0.076zm11.388 3.417c4.745,-0.797 6.643,-3.455 6.643,-8.503 0,-5.77 -4.062,-8.769 -11.009,-8.769l-14.31 0c0.076,4.1 0.113,8.199 0.113,14.235 0,6.073 -0.076,10.097 -0.113,14.235l7.705 0c-0.189,-2.202 -0.303,-5.391 -0.341,-9.035 2.733,-0.038 3.72,-0.038 5.58,-0.038 2.733,0 3.378,0.76 4.631,5.353 0.873,3.34 0.987,3.72 2.202,3.72l7.174 0c-0.455,-1.215 -1.177,-3.493 -1.974,-5.884 -1.215,-3.644 -2.619,-4.669 -6.301,-5.124l0 -0.19z"/>
   <path id="_4" class="fil1" d="M359.37 814.702c0.151,3.53 0.151,8.199 0.151,14.235 0,6.073 0,10.515 -0.151,14.235l22.547 0c-0.075,-0.76 -0.075,-2.164 -0.075,-3.075 0,-1.139 0,-2.733 0.075,-3.492 -4.972,0.038 -10.932,0.076 -15.146,0.076l0 -5.163c5.011,0 10.667,0.038 14.767,0.114 0,-1.367 0,-4.555 0.038,-5.846 -4.176,0.114 -9.756,0.114 -14.805,0.114l0 -5.01c4.214,0 9.946,0.037 15.146,0.076 -0.075,-0.722 -0.075,-2.316 -0.075,-3.341 0,-0.949 0.037,-2.278 0.075,-2.923l-22.547 0z"/>
   <path id="_5" class="fil1" d="M385.41 814.702c0.038,0.835 0.038,2.05 0.038,3.227 0,1.024 0,2.391 -0.038,3.264 2.695,-0.038 5.39,-0.076 7.781,-0.076 0,10.022 -0.038,19.891 -0.152,22.093 1.101,-0.114 2.62,-0.114 3.758,-0.114 1.101,0 2.772,0 3.758,0.114 -0.113,-2.24 -0.151,-12.109 -0.151,-22.093 2.391,0 5.087,0.038 7.782,0.076 -0.038,-0.873 -0.038,-2.24 -0.038,-3.264 0,-1.177 0,-2.43 0.038,-3.227l-22.776 0z"/>
   <path id="_6" class="fil1" d="M420.75 823.812c0.797,-2.467 1.329,-4.213 1.746,-5.504 0.418,1.291 0.912,3.075 1.709,5.391 0.797,2.505 1.746,5.541 2.581,8.426 -1.556,0.039 -3.151,0.039 -4.327,0.039 -1.139,0 -2.696,0 -4.214,-0.039l2.505 -8.313zm17.538 19.36c-2.923,-7.25 -8.541,-24.332 -9.946,-28.47l-11.426 0c-1.328,4.1 -6.984,21.371 -9.717,28.47l7.857 0c0.266,-1.101 0.873,-3.189 1.595,-5.694 2.087,0 4.251,0 5.769,0 1.633,0 3.797,0 5.922,0 0.721,2.657 1.291,4.745 1.443,5.694l8.503 0z"/>
   <path id="_7" class="fil1" d="M448.764 828.557c0,-2.543 0,-5.162 0,-7.819 1.823,-0.076 4.48,-0.114 5.543,-0.114 3.606,0 5.314,0.721 5.314,4.024 0,2.657 -1.518,3.985 -4.593,3.985 -2.619,-0.038 -4.973,-0.038 -6.264,-0.076zm11.389 3.417c4.744,-0.797 6.642,-3.455 6.642,-8.503 0,-5.77 -4.061,-8.769 -11.008,-8.769l-14.311 0c0.076,4.1 0.114,8.199 0.114,14.235 0,6.073 -0.076,10.097 -0.114,14.235l7.706 0c-0.19,-2.202 -0.303,-5.391 -0.342,-9.035 2.734,-0.038 3.721,-0.038 5.581,-0.038 2.733,0 3.378,0.76 4.631,5.353 0.873,3.34 0.987,3.72 2.202,3.72l7.174 0c-0.456,-1.215 -1.177,-3.493 -1.974,-5.884 -1.215,-3.644 -2.619,-4.669 -6.301,-5.124l0 -0.19z"/>
   <path id="_8" class="fil1" d="M480.309 843.172c-0.114,-4.176 -0.114,-8.237 -0.114,-14.273 0,-6.074 0,-10.173 0.114,-14.197l-7.554 0c0.114,4.1 0.114,8.161 0.114,14.235 0,6.035 0,10.097 -0.114,14.235l7.554 0z"/>
   <path id="_9" class="fil1" d="M497.429 823.812c0.797,-2.467 1.329,-4.213 1.746,-5.504 0.418,1.291 0.912,3.075 1.709,5.391 0.797,2.505 1.746,5.541 2.581,8.426 -1.556,0.039 -3.151,0.039 -4.327,0.039 -1.139,0 -2.696,0 -4.214,-0.039l2.505 -8.313zm17.538 19.36c-2.923,-7.25 -8.541,-24.332 -9.946,-28.47l-11.426 0c-1.328,4.1 -6.984,21.371 -9.718,28.47l7.858 0c0.266,-1.101 0.874,-3.189 1.595,-5.694 2.087,0 4.251,0 5.769,0 1.633,0 3.797,0 5.922,0 0.721,2.657 1.291,4.745 1.443,5.694l8.503 0z"/>
   <path id="_10" class="fil1" d="M562.074 843.172c-0.151,-4.1 -0.189,-8.237 -0.189,-14.273 0,-6.225 0.038,-10.477 0.114,-14.197l-8.769 0c-1.177,2.771 -3.379,8.351 -5.58,13.893 -0.532,1.253 -1.101,2.809 -1.633,4.366l-0.113 0c-0.494,-1.595 -1.063,-3.151 -1.595,-4.404 -2.391,-5.58 -4.403,-11.046 -5.618,-13.855l-9.565 0c0.076,3.72 0.076,7.972 0.076,14.197 0,6.036 0,10.173 -0.152,14.273l6.529 0c-0.076,-5.201 -0.19,-9.338 -0.19,-15.032 -0.038,-2.202 -0.152,-4.366 -0.228,-6.529l0.152 -0.038c0.607,2.05 1.291,4.251 2.05,6.035l6.301 15.564 3.189 0 6.149 -15.184c0.721,-1.67 1.405,-3.948 2.05,-6.149l0.152 0c-0.114,2.163 -0.228,4.479 -0.228,6.452 -0.038,5.619 -0.076,9.642 -0.266,14.881l7.364 0z"/>
   <path id="_11" class="fil1" d="M587.47 814.702c0.076,4.062 0.152,12.033 0.152,16.247 0,4.289 -1.595,6.149 -5.694,6.149 -4.214,0 -6.074,-1.86 -6.074,-6.149 0,-4.214 0.038,-12.147 0.19,-16.247l-7.592 0c0.076,2.315 0.152,4.669 0.152,8.123 0,2.24 -0.076,5.618 -0.076,8.314 0,7.591 3.758,12.564 13.248,12.564 9.49,0 13.21,-4.973 13.21,-12.564 0,-2.696 -0.076,-6.074 -0.076,-8.314 0,-3.454 0.076,-5.808 0.152,-8.123l-7.592 0z"/>
   <path id="_12" class="fil1" d="M621.292 814.702c0.152,2.505 0.303,8.275 0.303,13.134 0,2.088 0.152,4.328 0.342,6.567 -0.645,-1.746 -1.518,-3.53 -2.429,-5.048 -3.341,-5.543 -8.313,-12.641 -9.3,-14.653l-8.845 0c0.114,3.644 0.114,8.199 0.114,14.235 0,6.073 -0.076,10.477 -0.114,14.235l6.757 0c-0.114,-1.936 -0.114,-6.719 -0.152,-13.704 -0.038,-2.239 -0.152,-4.555 -0.379,-7.098l0.037 0c0.76,1.936 1.671,3.872 2.81,5.77 3.643,5.504 8.199,12.261 9.603,15.032l7.782 0c-0.076,-3.72 -0.076,-7.972 -0.076,-14.273 0,-6.036 0.076,-11.198 0.114,-14.197l-6.567 0z"/>
   <path id="_13" class="fil1" d="M641.828 843.172c-0.114,-4.176 -0.114,-8.237 -0.114,-14.273 0,-6.074 0,-10.173 0.114,-14.197l-7.554 0c0.114,4.1 0.114,8.161 0.114,14.235 0,6.035 0,10.097 -0.114,14.235l7.554 0z"/>
   <path id="_14" class="fil1" d="M666.578 826.166c1.215,-0.038 2.316,-0.038 3.53,-0.038 1.177,0 2.43,0 3.645,0.038 0.037,-0.608 0.076,-1.215 0.076,-1.784 0,-5.504 -3.797,-10.135 -12.831,-10.135 -9.452,0 -14.235,5.314 -14.235,14.576 0,10.135 5.353,14.804 14.235,14.804 8.465,0 12.944,-4.365 12.944,-10.932 0,-0.38 -0.037,-0.721 0,-1.101 -1.252,0.038 -2.505,0.038 -3.72,0.038 -1.176,0 -2.353,0 -3.568,-0.038l0 0.645c0,2.885 -1.746,4.783 -5.694,4.783 -4.441,0 -6.605,-2.239 -6.605,-8.389 0,-5.997 2.05,-7.858 6.339,-7.895 3.834,0 5.884,1.214 5.884,4.859l0 0.569z"/>
   <path id="_15" class="fil1" d="M686.583 843.172c-0.114,-4.176 -0.114,-8.237 -0.114,-14.273 0,-6.074 0,-10.173 0.114,-14.197l-7.554 0c0.114,4.1 0.114,8.161 0.114,14.235 0,6.035 0,10.097 -0.114,14.235l7.554 0z"/>
   <path id="_16" class="fil1" d="M704.804 829.62c-1.746,0 -3.341,-0.038 -4.328,-0.038 0,-2.695 0,-5.542 0,-8.503 1.481,-0.038 3.607,-0.076 4.555,-0.076 4.1,0 5.846,1.139 5.846,4.176 0,3.264 -1.556,4.441 -6.073,4.441zm-11.844 -14.918c0.152,3.872 0.19,8.199 0.19,14.235 0,6.073 -0.038,10.135 -0.19,14.235l7.858 0c-0.152,-1.974 -0.228,-4.442 -0.266,-7.25 2.126,0.075 3.492,0.075 5.58,0.075 7.82,0 12.033,-3.606 12.033,-10.704 0,-7.63 -4.365,-10.591 -11.919,-10.591l-13.286 0z"/>
   <path id="_17" class="fil1" d="M731.793 823.812c0.797,-2.467 1.329,-4.213 1.746,-5.504 0.418,1.291 0.912,3.075 1.709,5.391 0.797,2.505 1.746,5.541 2.581,8.426 -1.556,0.039 -3.151,0.039 -4.327,0.039 -1.139,0 -2.696,0 -4.214,-0.039l2.505 -8.313zm17.538 19.36c-2.923,-7.25 -8.541,-24.332 -9.946,-28.47l-11.426 0c-1.328,4.1 -6.985,21.371 -9.718,28.47l7.858 0c0.266,-1.101 0.873,-3.189 1.595,-5.694 2.087,0 4.251,0 5.769,0 1.633,0 3.797,0 5.922,0 0.721,2.657 1.291,4.745 1.443,5.694l8.503 0z"/>
   <path id="_18" class="fil1" d="M752.482 814.702c0.113,2.695 0.113,7.478 0.113,14.235 0,6.073 -0.113,11.881 -0.113,14.235l18.638 0c0,-1.101 -0.038,-2.202 -0.038,-3.341 0,-1.138 0.038,-2.239 0.038,-3.34 -3.606,0.114 -8.048,0.114 -11.198,0.114 -0.039,-2.202 -0.039,-5.049 -0.039,-7.744 0,-6.453 0.076,-11.995 0.191,-14.159l-7.592 0z"/>
   <path id="_19" class="fil1" d="M797.426 836.756c-1.671,0 -2.923,0 -4.441,-0.113 -0.039,-1.822 -0.039,-4.1 -0.039,-7.44 0,-2.696 0,-5.467 0.076,-7.972 1.405,-0.076 2.885,-0.114 4.518,-0.114 4.897,0 6.946,1.063 6.946,7.554 0,6.795 -2.087,8.085 -7.06,8.085zm-11.957 -22.054c0.113,3.606 0.113,8.237 0.113,14.273 0,6.035 0,10.249 -0.113,14.197l11.881 0c10.591,0 14.501,-4.252 14.501,-14.653 0,-10.401 -4.29,-13.817 -14.35,-13.817l-12.032 0z"/>
   <path id="_20" class="fil1" d="M816.862 814.702c0.151,3.53 0.151,8.199 0.151,14.235 0,6.073 0,10.515 -0.151,14.235l22.548 0c-0.076,-0.76 -0.076,-2.164 -0.076,-3.075 0,-1.139 0,-2.733 0.076,-3.492 -4.973,0.038 -10.933,0.076 -15.146,0.076l0 -5.163c5.01,0 10.667,0.038 14.766,0.114 0,-1.367 0,-4.555 0.038,-5.846 -4.176,0.114 -9.756,0.114 -14.804,0.114l0 -5.01c4.213,0 9.945,0.037 15.146,0.076 -0.076,-0.722 -0.076,-2.316 -0.076,-3.341 0,-0.949 0.037,-2.278 0.076,-2.923l-22.548 0z"/>
   <path id="_21" class="fil1" d="M406.098 891.115c-1.671,0 -2.923,0 -4.442,-0.114 -0.038,-1.822 -0.038,-4.1 -0.038,-7.44 0,-2.695 0,-5.466 0.076,-7.971 1.405,-0.076 2.885,-0.115 4.518,-0.115 4.897,0 6.946,1.063 6.946,7.555 0,6.794 -2.087,8.085 -7.06,8.085zm-11.958 -22.055c0.114,3.606 0.114,8.238 0.114,14.273 0,6.036 0,10.249 -0.114,14.197l11.882 0c10.591,0 14.501,-4.252 14.501,-14.652 0,-10.401 -4.29,-13.818 -14.349,-13.818l-12.034 0z"/>
   <path id="_22" class="fil1" d="M425.534 869.06c0.151,3.53 0.151,8.2 0.151,14.235 0,6.074 0,10.515 -0.151,14.235l22.548 0c-0.076,-0.759 -0.076,-2.164 -0.076,-3.075 0,-1.138 0,-2.733 0.076,-3.492 -4.973,0.038 -10.933,0.076 -15.147,0.076l0 -5.163c5.011,0 10.667,0.038 14.767,0.114 0,-1.366 0,-4.555 0.038,-5.845 -4.176,0.113 -9.756,0.113 -14.805,0.113l0 -5.01c4.214,0 9.946,0.038 15.147,0.076 -0.076,-0.722 -0.076,-2.316 -0.076,-3.341 0,-0.949 0.037,-2.277 0.076,-2.923l-22.548 0z"/>
   <path id="_23" class="fil1" d="M461.367 875.438c4.252,0 9.452,0.037 14.729,0.076 -0.076,-0.949 -0.076,-2.24 -0.076,-3.493 0,-0.987 0.038,-2.163 0.076,-2.961l-22.169 0c0.114,3.872 0.152,8.2 0.152,14.235 0,6.036 -0.076,10.325 -0.152,14.235l7.706 0c-0.114,-2.657 -0.19,-5.959 -0.228,-9.186 5.011,0 10.06,0.038 14.311,0 0,-1.519 0,-4.517 0.076,-6.036 -4.365,0.076 -9.338,0.114 -14.425,0.114l0 -6.984z"/>
   <path id="_24" class="fil1" d="M481.106 869.06c0.152,3.53 0.152,8.2 0.152,14.235 0,6.074 0,10.515 -0.152,14.235l22.549 0c-0.076,-0.759 -0.076,-2.164 -0.076,-3.075 0,-1.138 0,-2.733 0.076,-3.492 -4.973,0.038 -10.933,0.076 -15.147,0.076l0 -5.163c5.011,0 10.667,0.038 14.767,0.114 0,-1.366 0,-4.555 0.038,-5.845 -4.176,0.113 -9.756,0.113 -14.805,0.113l0 -5.01c4.214,0 9.946,0.038 15.147,0.076 -0.076,-0.722 -0.076,-2.316 -0.076,-3.341 0,-0.949 0.037,-2.277 0.076,-2.923l-22.549 0z"/>
   <path id="_25" class="fil1" d="M515.687 888.268c-1.024,0.076 -2.353,0.114 -3.795,0.114 -1.329,0 -2.658,-0.076 -3.455,-0.228 -0.076,0.645 -0.114,1.215 -0.114,1.822 0,5.087 3.645,8.085 13.059,8.085 8.692,0 12.336,-3.568 12.336,-8.73 0,-5.276 -3.074,-7.972 -11.122,-9.11 -6.073,-0.836 -6.757,-2.126 -6.757,-3.417 0,-1.405 1.101,-2.315 4.783,-2.315 4.859,0 5.922,1.138 5.922,2.771 0,0.227 0,0.531 -0.038,0.797 0.797,-0.038 2.126,-0.076 3.417,-0.076 1.29,0 2.543,0.038 3.34,0.076 0.038,-0.57 0.076,-1.101 0.076,-1.594 0,-4.859 -3.341,-7.934 -12.489,-7.934 -8.427,0 -12.299,3.568 -12.299,8.313 0,4.821 2.544,7.82 11.464,9.072 5.694,0.76 6.719,2.012 6.719,3.682 0,1.557 -1.139,2.506 -5.391,2.506 -4.365,0 -5.656,-0.911 -5.656,-3.455l0 -0.379z"/>
   <path id="_26" class="fil1" d="M548.902 878.171c0.797,-2.468 1.329,-4.214 1.746,-5.505 0.418,1.291 0.912,3.075 1.709,5.391 0.797,2.505 1.746,5.542 2.581,8.427 -1.556,0.038 -3.151,0.038 -4.327,0.038 -1.139,0 -2.696,0 -4.214,-0.038l2.505 -8.313zm17.538 19.359c-2.923,-7.25 -8.541,-24.332 -9.946,-28.47l-11.426 0c-1.328,4.1 -6.984,21.372 -9.717,28.47l7.857 0c0.266,-1.101 0.874,-3.189 1.595,-5.694 2.087,0 4.251,0 5.769,0 1.633,0 3.797,0 5.922,0 0.721,2.657 1.291,4.745 1.443,5.694l8.503 0z"/>
   <path id="_27" class="fil1" d="M598.82 880.524c1.214,-0.038 2.315,-0.038 3.53,-0.038 1.177,0 2.429,0 3.644,0.038 0.038,-0.607 0.076,-1.215 0.076,-1.784 0,-5.504 -3.796,-10.135 -12.83,-10.135 -9.453,0 -14.235,5.314 -14.235,14.576 0,10.136 5.352,14.805 14.235,14.805 8.465,0 12.944,-4.366 12.944,-10.933 0,-0.379 -0.038,-0.721 0,-1.101 -1.253,0.038 -2.506,0.038 -3.721,0.038 -1.176,0 -2.353,0 -3.567,-0.038l0 0.646c0,2.885 -1.747,4.783 -5.695,4.783 -4.441,0 -6.604,-2.24 -6.604,-8.39 0,-5.997 2.049,-7.857 6.339,-7.895 3.834,0 5.884,1.215 5.884,4.859l0 0.569z"/>
   <path id="_28" class="fil1" d="M618.824 897.53c-0.113,-4.176 -0.113,-8.237 -0.113,-14.273 0,-6.073 0,-10.173 0.113,-14.197l-7.553 0c0.113,4.1 0.113,8.162 0.113,14.235 0,6.036 0,10.098 -0.113,14.235l7.553 0z"/>
   <path id="_29" class="fil1" d="M642.777 869.06c-0.532,2.696 -2.809,11.464 -4.479,17.728 -0.57,2.087 -1.063,3.871 -1.405,5.276 -0.342,-1.405 -0.835,-3.151 -1.404,-5.276 -1.633,-6.264 -3.91,-14.691 -4.442,-17.728l-8.73 0c2.543,6.491 7.629,23.839 8.882,28.47 1.101,-0.038 2.771,-0.076 5.58,-0.076 2.088,0 4.024,0.038 5.466,0.076 1.291,-4.707 6.264,-21.409 8.77,-28.47l-8.238 0z"/>
   <path id="_30" class="fil1" d="M661.985 897.53c-0.114,-4.176 -0.114,-8.237 -0.114,-14.273 0,-6.073 0,-10.173 0.114,-14.197l-7.554 0c0.114,4.1 0.114,8.162 0.114,14.235 0,6.036 0,10.098 -0.114,14.235l7.554 0z"/>
   <path id="_31" class="fil1" d="M668.4 869.06c0.114,2.696 0.114,7.478 0.114,14.235 0,6.074 -0.114,11.882 -0.114,14.235l18.638 0c0,-1.101 -0.037,-2.201 -0.037,-3.34 0,-1.139 0.037,-2.24 0.037,-3.341 -3.606,0.114 -8.047,0.114 -11.198,0.114 -0.038,-2.201 -0.038,-5.049 -0.038,-7.744 0,-6.453 0.076,-11.995 0.19,-14.159l-7.592 0z"/>
   <polygon class="fil2" points="219.881,725.664 347.929,725.664 347.929,738.819 219.881,738.819 "/>
   <polygon class="fil3" points="347.929,725.664 475.977,725.664 475.977,738.819 347.929,738.819 "/>
   <polygon class="fil4" points="475.977,725.664 604.026,725.664 604.026,738.819 475.977,738.819 "/>
   <polygon class="fil5" points="604.026,725.664 732.074,725.664 732.074,738.819 604.026,738.819 "/>
   <polygon class="fil6" points="732.074,725.664 860.123,725.664 860.123,738.819 732.074,738.819 "/>
   <polygon class="fil7" points="306.849,632.104 306.849,591.359 321.942,591.359 321.942,576.755 274.547,576.755 274.547,591.359 289.723,591.359 289.723,632.104 "/>
   <polygon class="fil7" points="367.222,632.104 367.222,617.499 341.449,617.499 341.449,611.442 366.629,611.442 366.629,596.837 341.449,596.837 341.449,591.359 367.222,591.359 367.222,576.755 324.323,576.755 324.323,632.104 "/>
   <path class="fil7" d="M421.747 632.104l-10.26 -19.584c4.494,-2.157 10.174,-7.22 10.174,-16.763 0,-10.372 -7.121,-19.002 -20.348,-19.002l-30.182 0 0 55.349 17.126 0 0 -17.427 6.188 0 7.802 17.427 19.5 0zm-23.061 -32.031l-10.429 0 0 -8.714 10.429 0c2.881,0 5.595,1.328 5.595,4.316 0,3.07 -2.714,4.398 -5.595,4.398z"/>
   <polygon class="fil7" points="467.791,632.104 467.791,617.499 442.019,617.499 442.019,611.442 467.198,611.442 467.198,596.837 442.019,596.837 442.019,591.359 467.791,591.359 467.791,576.755 424.892,576.755 424.892,632.104 "/>
   <path class="fil7" d="M493.658 633.1c15.177,0 24.419,-7.054 24.419,-19.252 0,-20.58 -31.455,-16.099 -31.455,-21.327 0,-1.411 0.931,-2.49 4.324,-2.49 5.341,0 11.7,1.826 16.617,5.477l9.156 -11.866c-6.444,-5.144 -14.751,-7.717 -23.993,-7.717 -15.516,0 -23.486,8.962 -23.486,18.339 0,21.824 31.54,16.431 31.54,21.742 0,2.157 -3.052,2.987 -6.273,2.987 -7.632,0 -13.99,-3.154 -18.229,-7.137l-8.902 12.448c6.019,5.31 14.244,8.796 26.282,8.796z"/>
   <path class="fil7" d="M563.019 559.743l-13.141 0 -10.175 11.949 10.175 0 13.141 -11.949zm-15.175 73.357c17.464,0 30.946,-11.618 30.946,-28.63 0,-17.011 -13.482,-28.628 -30.946,-28.628 -17.468,0 -30.949,11.617 -30.949,28.628 0,17.012 13.481,28.63 30.949,28.63zm0 -14.772c-8.225,0 -13.566,-6.14 -13.566,-13.858 0,-7.716 5.341,-13.857 13.566,-13.857 8.224,0 13.564,6.141 13.564,13.857 0,7.718 -5.34,13.858 -13.564,13.858z"/>
   <path class="fil7" d="M598.297 632.104l0 -17.427 13.057 0c13.226,0 20.348,-8.63 20.348,-18.92 0,-10.372 -7.122,-19.002 -20.348,-19.002l-30.184 0 0 55.349 17.127 0zm10.851 -32.031l-10.851 0 0 -8.714 10.851 0c2.884,0 5.173,1.411 5.173,4.398 0,2.905 -2.289,4.316 -5.173,4.316z"/>
   <path class="fil7" d="M661.469 633.1c17.465,0 30.946,-11.618 30.946,-28.63 0,-17.011 -13.481,-28.628 -30.946,-28.628 -17.465,0 -30.947,11.617 -30.947,28.628 0,17.012 13.482,28.63 30.947,28.63zm0 -14.772c-8.225,0 -13.565,-6.14 -13.565,-13.858 0,-7.716 5.34,-13.857 13.565,-13.857 8.224,0 13.565,6.141 13.565,13.857 0,7.718 -5.341,13.858 -13.565,13.858z"/>
   <polygon class="fil7" points="733.371,632.104 733.371,617.499 711.923,617.499 711.923,576.755 694.796,576.755 694.796,632.104 "/>
   <polygon class="fil7" points="753.643,632.104 753.643,576.755 736.516,576.755 736.516,632.104 "/>
   <path class="fil7" d="M781.037 633.1c15.175,0 24.416,-7.054 24.416,-19.252 0,-20.58 -31.455,-16.099 -31.455,-21.327 0,-1.411 0.934,-2.49 4.324,-2.49 5.342,0 11.701,1.826 16.619,5.477l9.156 -11.866c-6.444,-5.144 -14.752,-7.717 -23.994,-7.717 -15.514,0 -23.485,8.962 -23.485,18.339 0,21.824 31.54,16.431 31.54,21.742 0,2.157 -3.053,2.987 -6.275,2.987 -7.629,0 -13.99,-3.154 -18.228,-7.137l-8.903 12.448c6.02,5.31 14.244,8.796 26.285,8.796z"/>
   <path class="fil8" d="M345.787 665.384c0,4.561 2.636,9.629 7.552,9.629 3.75,0 8.311,-6.335 8.311,-6.335 0,0 0.254,6.335 5.727,6.335 4.966,0 14.341,-18.498 16.368,-22.805 0.507,-1.165 -0.861,-1.571 -1.469,-0.405 -1.724,3.446 -10.591,20.777 -14.139,20.777 -3.649,0 4.105,-13.582 4.105,-15.456 0,-1.875 -5.322,-5.169 -5.322,-3.142 0,2.027 -6.891,19.004 -12.82,19.004 -6.944,0 4.865,-25.086 12.01,-25.086 4.511,0 4.359,3.802 4.156,4.257 -0.152,0.406 0.608,1.115 1.064,0 0.507,-1.165 0.253,-7.601 -6.943,-7.601 -9.071,0 -18.6,11.959 -18.6,20.828z"/>
   <path class="fil8" d="M385.931 675.013c11.352,0 21.336,-18.396 23.363,-22.704 0.506,-1.165 -0.862,-1.52 -1.471,-0.406 -1.723,3.498 -10.692,20.221 -21.131,20.221 -8.311,0 3.546,-26.098 10.693,-26.098 2.889,0 0.253,7.906 0.253,7.906 -0.406,1.165 0.963,1.418 1.367,0.201 0.204,-0.709 3.751,-9.577 -2.33,-9.577l0 0c-9.832,0 -20.118,10.135 -20.118,19.713 0,4.561 2.988,10.744 9.374,10.744z"/>
   <path class="fil8" d="M414.166 640.046c3.902,0 6.74,-2.585 6.74,-4.764 0,-2.23 -2.078,-3.496 -4.257,-3.496 -2.33,0 -4.611,8.26 -2.483,8.26zm9.932 11.774c-1.672,3.504 -11.199,20.76 -16.418,20.76 -4.866,0 7.5,-20.659 7.5,-23.049 0,-3.092 -4.916,-6.529 -4.916,-4.156 0,2.382 -9.021,18.219 -9.021,23.354 0,3.801 2.129,6.284 5.119,6.284l0 0c7.652,0 17.18,-18.472 19.206,-22.788 0.557,-1.165 -0.862,-1.52 -1.47,-0.405z"/>
   <path class="fil8" d="M468.904 652.022c-1.722,3.454 -11.909,20.558 -15.457,20.558 -4.864,0 7.502,-20.558 7.502,-22.948 0,-2.128 -2.383,-4.467 -3.852,-4.873 0,0 0,0 -0.051,0 -0.153,-0.051 -0.304,-0.051 -0.406,-0.051 -0.05,0 -0.05,0 -0.05,0 -1.57,0 -10.997,11.782 -15.507,17.568 2.534,-5.076 5.472,-10.305 5.472,-12.382 0,-3.354 -3.344,-5.389 -4.864,-5.186 0,0 -0.051,0 -0.051,0 -1.572,0 -11.047,11.884 -15.557,17.619 2.533,-5.076 5.523,-10.356 5.523,-12.433 0,-4.367 -5.625,-6.757 -5.625,-4.417 0,5.177 -8.869,16.596 -8.869,23.404 0,3.699 2.888,6.132 5.169,6.132 1.571,0 0.305,-1.824 0.305,-3.143 0,-0.303 0.049,-0.708 0.101,-1.063 2.33,-5.431 13.885,-18.684 17.788,-22.796 -1.825,5.735 -8.363,15.025 -8.363,20.87 0,3.699 2.889,6.132 5.17,6.132 1.521,0 0.303,-1.824 0.303,-3.143 0,-0.353 0.052,-0.759 0.101,-1.216 2.382,-5.329 13.177,-17.821 17.383,-22.238 -2.33,5.431 -8.057,16.25 -8.057,20.313 0,3.851 2.178,6.284 5.119,6.284l0 0c5.877,0 16.216,-18.32 18.193,-22.586 0.556,-1.165 -0.862,-1.519 -1.42,-0.405z"/>
   <path class="fil8" d="M462.982 665.384c0,4.561 2.636,9.629 7.552,9.629 3.749,0 8.311,-6.335 8.311,-6.335 0,0 0.252,6.335 5.727,6.335 4.966,0 14.342,-18.498 16.369,-22.805 0.506,-1.165 -0.862,-1.571 -1.47,-0.405 -1.724,3.446 -10.593,20.777 -14.14,20.777 -3.648,0 4.105,-13.582 4.105,-15.456 0,-1.875 -5.32,-5.169 -5.32,-3.142 0,2.027 -6.893,19.004 -12.823,19.004 -6.943,0 4.865,-25.086 12.011,-25.086 4.511,0 4.359,3.802 4.156,4.257 -0.152,0.406 0.609,1.115 1.064,0 0.507,-1.165 0.254,-7.601 -6.942,-7.601 -9.073,0 -18.6,11.959 -18.6,20.828z"/>
   <path class="fil8" d="M554.258 652.005c-1.722,3.447 -12.06,20.575 -16.671,20.575 -4.765,0 15.406,-35.271 15.406,-41.504 0,-1.926 -5.322,-5.17 -5.322,-3.142 0,0.912 -3.649,10.44 -8.21,20.524 -0.355,-1.926 -1.773,-3.801 -5.624,-3.801 -9.072,0 -18.549,11.909 -18.549,20.778 0,4.56 2.635,9.578 7.551,9.578 4.359,0 8.261,-6.335 8.261,-6.335 0,0 0.254,6.335 5.726,6.335 6.082,0 16.876,-18.295 18.904,-22.602 0.506,-1.166 -0.863,-1.52 -1.472,-0.406zm-30.659 20.981c-6.942,0 4.814,-24.984 11.961,-24.984 2.178,0 0.558,3.801 0.355,4.206 -0.102,0.253 0.657,0.558 1.468,0.608 -4.965,10.439 -10.591,20.17 -13.784,20.17z"/>
   <path class="fil8" d="M580.06 652.005c-1.672,3.447 -11.147,20.119 -21.233,20.119 -2.788,0 -3.344,-2.888 -2.533,-6.74 8.867,-1.115 22.905,-20.727 12.466,-20.727l0 0c-9.832,0 -20.069,10.085 -20.069,19.663 0,4.561 2.99,10.693 9.375,10.693 12.264,0 21.438,-18.345 23.464,-22.602 0.508,-1.166 -0.862,-1.571 -1.47,-0.406zm-10.591 -5.523c4.966,0 -5.524,15.203 -12.619,16.824 2.231,-7.398 8.261,-16.824 12.619,-16.824z"/>
   <path class="fil8" d="M611.589 643.796c10.136,0 14.493,-2.939 14.493,-3.801 0,-0.811 -5.27,1.571 -13.377,1.571 -0.153,0 -0.355,0 -0.558,0 1.925,-4.155 3.242,-7.601 3.242,-9.274 0,-3.091 -4.916,-6.487 -4.916,-4.156 0,1.977 -2.179,7.146 -4.915,13.177 -8.615,-0.76 -11.402,-2.535 -11.402,-1.216 0,0.658 3.75,2.483 10.439,3.293 -4.46,9.629 -9.831,20.626 -9.831,24.173 0,4.713 4.004,7.45 6.284,7.45l0 0c8.97,0 19.106,-18.295 21.133,-22.552 0.506,-1.165 -0.913,-1.57 -1.469,-0.456 -1.725,3.497 -11.86,20.575 -18.346,20.575 -5.676,0 3.091,-16.621 8.767,-28.784 0.151,0 0.303,0 0.456,0z"/>
   <path class="fil8" d="M650.11 652.022c-1.672,3.454 -9.424,20.558 -14.036,20.558 -4.814,0 7.5,-20.558 7.5,-22.948 0,-3.092 -4.916,-6.495 -4.916,-4.155 0,0.862 -1.166,3.395 -2.635,6.545 0,0 -14.595,21.268 -17.079,21.268 -3.598,0 9.325,-19.798 9.325,-23.455 0,-4.308 -5.624,-6.698 -5.624,-4.358 0,5.177 -8.87,16.292 -8.87,23.091 0,2.34 2.433,6.445 5.169,6.445 2.534,0 9.224,-8.978 13.43,-14.865 -1.521,3.496 -2.685,6.748 -2.685,8.581 0,2.635 2.584,6.284 5.067,6.284l0 0c6.79,0 14.798,-18.32 16.825,-22.586 0.507,-1.165 -0.862,-1.519 -1.471,-0.405z"/>
   <path class="fil8" d="M683.159 652.005c-1.723,3.447 -12.061,20.575 -16.672,20.575 -4.764,0 15.406,-35.271 15.406,-41.504 0,-1.926 -5.321,-5.17 -5.321,-3.142 0,0.912 -3.65,10.44 -8.211,20.524 -0.354,-1.926 -1.773,-3.801 -5.623,-3.801 -9.073,0 -18.55,11.909 -18.55,20.778 0,4.56 2.636,9.578 7.551,9.578 4.359,0 8.262,-6.335 8.262,-6.335 0,0 0.253,6.335 5.725,6.335 6.082,0 16.877,-18.295 18.904,-22.602 0.506,-1.166 -0.863,-1.52 -1.471,-0.406zm-30.66 20.981c-6.942,0 4.815,-24.984 11.961,-24.984 2.178,0 0.558,3.801 0.355,4.206 -0.102,0.253 0.657,0.558 1.468,0.608 -4.965,10.439 -10.591,20.17 -13.784,20.17z"/>
   <path class="fil8" d="M712.356 652.014c-1.266,2.694 -7.196,11.63 -13.734,13.454 2.636,-4.569 4.358,-10.253 4.358,-15.642 0,-3.091 -1.164,-5.27 -5.826,-5.27 -3.648,0 -7.095,3.091 -9.478,6.495 -0.911,-0.405 -1.975,-0.608 -2.836,-0.608 -1.725,0 -7.147,8.125 -7.147,14.519 0,6.656 4.156,10.051 8.464,10.051 4.154,0 8.209,-3.092 11.301,-7.661 8.715,-1.064 14.797,-11.681 16.216,-14.628 0.608,-1.369 -0.76,-2.23 -1.318,-0.71zm-26.047 20.87c-4.765,0 -2.889,-5.735 -0.507,-10.963 1.723,2.839 5.27,5.076 9.021,5.482 -2.332,3.201 -5.27,5.481 -8.514,5.481zm9.578 -7.052c-10.541,-0.414 1.216,-18.691 3.597,-18.691 3.092,0 1.166,11.072 -3.597,18.691z"/>
   <path class="fil8" d="M728.883 627.529c0,6.739 -13.074,24.173 -13.074,29.291 0,3.446 4.206,6.537 4.206,4.662 0,-6.487 14.19,-25.085 14.19,-29.393 0,-3.446 -5.322,-6.436 -5.322,-4.56zm-14.948 36.132c-1.166,0 -4.055,5.372 -4.055,7.551 0,2.179 4.814,5.371 4.814,2.635 0,-2.28 2.991,-5.524 2.991,-6.993 0,-1.47 -1.876,-3.193 -3.75,-3.193z"/>
   <path class="fil7" d="M302.991 196.866c-1.699,0 -3.25,-0.037 -4.211,-0.037 0,-2.623 0,-5.395 0,-8.276 1.441,-0.037 3.511,-0.074 4.433,-0.074 3.99,0 5.69,1.108 5.69,4.064 0,3.178 -1.515,4.323 -5.912,4.323zm-11.526 -14.52c0.148,3.769 0.184,7.98 0.184,13.855 0,5.911 -0.036,9.865 -0.184,13.855l7.648 0c-0.149,-1.922 -0.222,-4.323 -0.258,-7.057 2.068,0.074 3.398,0.074 5.431,0.074 7.61,0 11.712,-3.51 11.712,-10.419 0,-7.426 -4.249,-10.308 -11.603,-10.308l-12.93 0z"/>
   <path class="fil7" d="M326.212 195.831c0,-2.475 0,-5.025 0,-7.611 1.773,-0.074 4.359,-0.11 5.394,-0.11 3.509,0 5.171,0.702 5.171,3.916 0,2.586 -1.476,3.879 -4.47,3.879 -2.549,-0.037 -4.839,-0.037 -6.095,-0.074zm11.083 3.326c4.619,-0.776 6.465,-3.363 6.465,-8.277 0,-5.615 -3.951,-8.534 -10.713,-8.534l-13.929 0c0.074,3.99 0.111,7.98 0.111,13.855 0,5.911 -0.074,9.827 -0.111,13.855l7.499 0c-0.184,-2.143 -0.295,-5.247 -0.332,-8.794 2.66,-0.037 3.622,-0.037 5.431,-0.037 2.661,0 3.29,0.739 4.507,5.21 0.85,3.251 0.962,3.621 2.144,3.621l6.984 0c-0.445,-1.183 -1.146,-3.4 -1.923,-5.728 -1.182,-3.546 -2.549,-4.544 -6.133,-4.987l0 -0.184z"/>
   <path class="fil7" d="M348.471 182.346c0.148,3.436 0.148,7.98 0.148,13.855 0,5.911 0,10.234 -0.148,13.855l21.945 0c-0.073,-0.74 -0.073,-2.107 -0.073,-2.993 0,-1.109 0,-2.66 0.073,-3.399 -4.839,0.037 -10.639,0.074 -14.74,0.074l0 -5.024c4.877,0 10.382,0.036 14.371,0.11 0,-1.33 0,-4.434 0.038,-5.69 -4.064,0.111 -9.496,0.111 -14.409,0.111l0 -4.876c4.101,0 9.68,0.036 14.74,0.073 -0.073,-0.702 -0.073,-2.253 -0.073,-3.252 0,-0.923 0.037,-2.216 0.073,-2.844l-21.945 0z"/>
   <path class="fil7" d="M382.257 188.553c4.139,0 9.2,0.037 14.335,0.073 -0.073,-0.923 -0.073,-2.179 -0.073,-3.398 0,-0.961 0.038,-2.106 0.073,-2.882l-21.576 0c0.112,3.769 0.148,7.98 0.148,13.855 0,5.874 -0.074,10.049 -0.148,13.855l7.501 0c-0.111,-2.587 -0.186,-5.801 -0.223,-8.941 4.877,0 9.79,0.036 13.93,0 0,-1.478 0,-4.397 0.074,-5.875 -4.249,0.074 -9.089,0.111 -14.041,0.111l0 -6.798z"/>
   <path class="fil7" d="M400.379 182.346c0.148,3.436 0.148,7.98 0.148,13.855 0,5.911 0,10.234 -0.148,13.855l21.945 0c-0.073,-0.74 -0.073,-2.107 -0.073,-2.993 0,-1.109 0,-2.66 0.073,-3.399 -4.838,0.037 -10.64,0.074 -14.74,0.074l0 -5.024c4.877,0 10.382,0.036 14.372,0.11 0,-1.33 0,-4.434 0.037,-5.69 -4.064,0.111 -9.496,0.111 -14.409,0.111l0 -4.876c4.1,0 9.679,0.036 14.74,0.073 -0.073,-0.702 -0.073,-2.253 -0.073,-3.252 0,-0.923 0.038,-2.216 0.073,-2.844l-21.945 0z"/>
   <path class="fil7" d="M434.276 210.056c-0.11,-4.064 -0.11,-8.018 -0.11,-13.892 0,-5.912 0,-9.902 0.11,-13.818l-7.353 0c0.112,3.99 0.112,7.944 0.112,13.855 0,5.874 0,9.827 -0.112,13.855l7.353 0z"/>
   <path class="fil7" d="M437.139 182.346c0.036,0.813 0.036,1.995 0.036,3.141 0,0.997 0,2.328 -0.036,3.177 2.623,-0.038 5.246,-0.074 7.573,-0.074 0,9.754 -0.035,19.359 -0.148,21.503 1.072,-0.112 2.55,-0.112 3.658,-0.112 1.072,0 2.697,0 3.658,0.112 -0.111,-2.18 -0.147,-11.786 -0.147,-21.503 2.327,0 4.951,0.036 7.574,0.074 -0.037,-0.849 -0.037,-2.18 -0.037,-3.177 0,-1.146 0,-2.365 0.037,-3.141l-22.168 0z"/>
   <path class="fil7" d="M480.605 182.346c0.074,3.953 0.148,11.712 0.148,15.812 0,4.176 -1.552,5.986 -5.541,5.986 -4.102,0 -5.912,-1.81 -5.912,-5.986 0,-4.1 0.037,-11.822 0.185,-15.812l-7.39 0c0.075,2.254 0.148,4.544 0.148,7.906 0,2.18 -0.073,5.469 -0.073,8.092 0,7.389 3.658,12.229 12.893,12.229 9.237,0 12.857,-4.84 12.857,-12.229 0,-2.623 -0.073,-5.912 -0.073,-8.092 0,-3.362 0.073,-5.652 0.147,-7.906l-7.389 0z"/>
   <path class="fil7" d="M500.167 195.831c0,-2.475 0,-5.025 0,-7.611 1.774,-0.074 4.361,-0.11 5.394,-0.11 3.511,0 5.173,0.702 5.173,3.916 0,2.586 -1.477,3.879 -4.471,3.879 -2.548,-0.037 -4.838,-0.037 -6.096,-0.074zm11.085 3.326c4.617,-0.776 6.465,-3.363 6.465,-8.277 0,-5.615 -3.953,-8.534 -10.714,-8.534l-13.929 0c0.073,3.99 0.111,7.98 0.111,13.855 0,5.911 -0.075,9.827 -0.111,13.855l7.5 0c-0.185,-2.143 -0.295,-5.247 -0.332,-8.794 2.659,-0.037 3.62,-0.037 5.432,-0.037 2.658,0 3.287,0.739 4.506,5.21 0.85,3.251 0.96,3.621 2.143,3.621l6.983 0c-0.443,-1.183 -1.146,-3.4 -1.922,-5.728 -1.183,-3.546 -2.55,-4.544 -6.132,-4.987l0 -0.184z"/>
   <path class="fil7" d="M531.959 191.213c0.777,-2.401 1.294,-4.101 1.7,-5.357 0.406,1.256 0.886,2.993 1.663,5.246 0.776,2.439 1.699,5.394 2.512,8.202 -1.515,0.037 -3.066,0.037 -4.211,0.037 -1.109,0 -2.624,0 -4.102,-0.037l2.438 -8.091zm17.07 18.843c-2.846,-7.057 -8.314,-23.683 -9.681,-27.71l-11.12 0c-1.294,3.99 -6.798,20.8 -9.458,27.71l7.647 0c0.258,-1.072 0.85,-3.104 1.552,-5.543 2.033,0 4.137,0 5.616,0 1.588,0 3.695,0 5.763,0 0.703,2.587 1.257,4.619 1.405,5.543l8.276 0z"/>
   <path class="fil7" d="M593.787 210.056c-0.146,-3.99 -0.184,-8.018 -0.184,-13.892 0,-6.059 0.038,-10.197 0.111,-13.818l-8.535 0c-1.145,2.697 -3.289,8.128 -5.431,13.522 -0.517,1.22 -1.071,2.734 -1.588,4.249l-0.112 0c-0.479,-1.552 -1.034,-3.067 -1.551,-4.286 -2.327,-5.431 -4.286,-10.751 -5.469,-13.485l-9.31 0c0.075,3.621 0.075,7.759 0.075,13.818 0,5.874 0,9.902 -0.149,13.892l6.356 0c-0.076,-5.062 -0.185,-9.089 -0.185,-14.631 -0.037,-2.143 -0.148,-4.249 -0.222,-6.355l0.148 -0.037c0.591,1.995 1.255,4.138 1.995,5.875l6.133 15.148 3.104 0 5.985 -14.779c0.701,-1.625 1.367,-3.843 1.994,-5.985l0.148 0c-0.111,2.106 -0.221,4.36 -0.221,6.281 -0.037,5.467 -0.074,9.384 -0.259,14.483l7.167 0z"/>
   <path class="fil7" d="M617.413 182.346c0.074,3.953 0.149,11.712 0.149,15.812 0,4.176 -1.552,5.986 -5.542,5.986 -4.102,0 -5.912,-1.81 -5.912,-5.986 0,-4.1 0.038,-11.822 0.185,-15.812l-7.39 0c0.074,2.254 0.149,4.544 0.149,7.906 0,2.18 -0.075,5.469 -0.075,8.092 0,7.389 3.658,12.229 12.894,12.229 9.237,0 12.858,-4.84 12.858,-12.229 0,-2.623 -0.073,-5.912 -0.073,-8.092 0,-3.362 0.073,-5.652 0.146,-7.906l-7.389 0z"/>
   <path class="fil7" d="M649.242 182.346c0.147,2.438 0.296,8.054 0.296,12.783 0,2.032 0.147,4.212 0.331,6.392 -0.627,-1.699 -1.476,-3.436 -2.363,-4.914 -3.253,-5.394 -8.091,-12.303 -9.053,-14.261l-8.608 0c0.111,3.546 0.111,7.98 0.111,13.855 0,5.911 -0.073,10.197 -0.111,13.855l6.576 0c-0.109,-1.885 -0.109,-6.54 -0.147,-13.338 -0.037,-2.18 -0.148,-4.433 -0.37,-6.909l0.038 0c0.738,1.884 1.625,3.769 2.733,5.616 3.548,5.357 7.981,11.934 9.348,14.631l7.573 0c-0.074,-3.621 -0.074,-7.759 -0.074,-13.892 0,-5.874 0.074,-10.899 0.112,-13.818l-6.392 0z"/>
   <path class="fil7" d="M668.14 210.056c-0.112,-4.064 -0.112,-8.018 -0.112,-13.892 0,-5.912 0,-9.902 0.112,-13.818l-7.353 0c0.111,3.99 0.111,7.944 0.111,13.855 0,5.874 0,9.827 -0.111,13.855l7.353 0z"/>
   <path class="fil7" d="M691.138 193.504c1.181,-0.037 2.252,-0.037 3.435,-0.037 1.144,0 2.365,0 3.547,0.037 0.037,-0.591 0.074,-1.183 0.074,-1.737 0,-5.357 -3.694,-9.865 -12.488,-9.865 -9.2,0 -13.855,5.173 -13.855,14.188 0,9.864 5.209,14.409 13.855,14.409 8.24,0 12.599,-4.249 12.599,-10.641 0,-0.369 -0.038,-0.701 0,-1.071 -1.221,0.037 -2.438,0.037 -3.621,0.037 -1.145,0 -2.291,0 -3.473,-0.037l0 0.628c0,2.808 -1.7,4.655 -5.542,4.655 -4.323,0 -6.428,-2.179 -6.428,-8.165 0,-5.838 1.995,-7.647 6.17,-7.685 3.732,0 5.727,1.183 5.727,4.729l0 0.555z"/>
   <path class="fil7" d="M709.518 210.056c-0.111,-4.064 -0.111,-8.018 -0.111,-13.892 0,-5.912 0,-9.902 0.111,-13.818l-7.353 0c0.11,3.99 0.11,7.944 0.11,13.855 0,5.874 0,9.827 -0.11,13.855l7.353 0z"/>
   <path class="fil7" d="M726.161 196.866c-1.7,0 -3.253,-0.037 -4.213,-0.037 0,-2.623 0,-5.395 0,-8.276 1.44,-0.037 3.51,-0.074 4.434,-0.074 3.99,0 5.69,1.108 5.69,4.064 0,3.178 -1.516,4.323 -5.911,4.323zm-11.527 -14.52c0.146,3.769 0.184,7.98 0.184,13.855 0,5.911 -0.038,9.865 -0.184,13.855l7.646 0c-0.146,-1.922 -0.221,-4.323 -0.258,-7.057 2.069,0.074 3.399,0.074 5.431,0.074 7.611,0 11.713,-3.51 11.713,-10.419 0,-7.426 -4.249,-10.308 -11.602,-10.308l-12.93 0z"/>
   <path class="fil7" d="M751.339 191.213c0.776,-2.401 1.293,-4.101 1.699,-5.357 0.406,1.256 0.886,2.993 1.663,5.246 0.776,2.439 1.699,5.394 2.512,8.202 -1.515,0.037 -3.066,0.037 -4.211,0.037 -1.109,0 -2.624,0 -4.102,-0.037l2.439 -8.091zm17.069 18.843c-2.846,-7.057 -8.314,-23.683 -9.681,-27.71l-11.119 0c-1.295,3.99 -6.799,20.8 -9.459,27.71l7.647 0c0.259,-1.072 0.85,-3.104 1.553,-5.543 2.032,0 4.137,0 5.616,0 1.587,0 3.694,0 5.762,0 0.703,2.587 1.257,4.619 1.404,5.543l8.277 0z"/>
   <path class="fil9" d="M530.747 279.958c0.252,-6.973 10.495,-7.037 11.237,0l0 16.64 -11.237 0 0 -16.64zm-64.059 9.114l-6.267 -0.734 -10.308 -15.417 5.712 -2.752 5.711 3.975 -0.248 -7.215 5.588 -2.875 7.758 16.086 -1.987 5.016c4.719,-2.569 10.243,-4.65 16.266,-6.298l-4.718 -1.41 -6.583 -16.698 5.835 -1.712 4.782 4.769 1.239 -6.543 5.712 -1.776 5.093 4.897 0.807 -6.731 6.327 -1.712 4.098 17.374 -2.543 4.034c5.711,-1.159 11.419,-2.08 17.196,-2.628l-3.912 -3.487 -1.118 -17.803 6.333 0 2.73 6.179 3.416 -6.116 6.02 0.124 3.288 5.81 2.982 -5.874 6.268 0.124 -1.55 17.862 -3.911 2.875c5.835,0.488 11.607,1.406 17.381,2.811l-2.67 -4.281 4.158 -17.187 5.833 2.077 0.935 6.302 5.276 -4.769 6.021 1.895 0.866 6.238 4.782 -4.893 5.894 2.2 -6.514 16.457 -4.718 1.898c5.712,1.588 11.232,3.546 16.325,6.116l-1.801 -4.528 7.514 -16.639 5.707 2.752 -0.371 6.791 5.96 -3.423 5.647 2.446 -10.178 15.229 -6.519 0.981 -2.299 3.852c-1.035,-0.93 -4.811,-2.319 -7.678,1.419l-8.336 14.465 4.917 2.743 -3.736 6.268c-33.52,-17.433 -69.772,-18.104 -105.339,-0.306l-3.716 -6.153 4.791 -2.684 -8.342 -14.465c-2.824,-3.687 -6.573,-2.344 -7.67,-1.418l-2.136 -3.538zm98.204 -6.362c2.153,-6.646 12.032,-3.975 10.812,2.998l-4.568 16.015 -10.817 -2.998 4.573 -16.015zm-57.485 0c-2.153,-6.646 -12.032,-3.975 -10.812,2.998l4.57 16.015 10.815 -2.998 -4.573 -16.015z"/>
   <path class="fil9" d="M466.893 319.985l141.121 0 0 53.159 -141.121 0 0 -53.159zm141.121 54.587l0 55.364 -1.303 7.096 -1.877 6.609 -2.429 6.17 -2.939 5.729 -3.41 5.287 -3.844 4.838 -4.234 4.387 -4.59 3.937 -4.91 3.482 -5.176 3.024 -5.42 2.573 -5.614 2.115 -5.78 1.656 -5.894 1.202 -5.985 0.743 -6.026 0.28 -6.039 -0.177 -6.009 -0.638 -5.941 -1.104 -5.84 -1.567 -5.695 -2.038 -5.512 -2.502 -5.295 -2.972 -5.037 -3.445 -4.741 -3.92 -4.403 -4.391 -4.026 -4.862 -3.614 -5.338 -3.155 -5.815 -2.667 -6.285 -2.133 -6.756 -1.583 -7.301 0 -55.381 141.121 0zm-116.536 -29.658l3.287 -9.865 3.287 9.716 10.458 0 -8.815 6.184 3.441 10.014 -8.223 -6.476 -8.817 6.476 3.887 -9.716 -8.966 -6.333 10.461 0zm84.881 0l3.436 -9.865 2.99 9.716 10.608 0 -8.965 6.184 3.737 10.014 -8.222 -6.476 -8.817 6.476 3.589 -9.716 -8.817 -6.333 10.461 0zm-36.613 -7.805l1.941 0.441 1.792 0.884 1.645 1.031 1.345 1.326 1.199 1.474 0.895 1.766 0.594 1.767 0.153 2.059 -0.153 1.916 -0.594 1.915 -0.895 1.916 -1.199 1.468 -1.345 1.325 -1.645 1.033 -1.792 0.739 -1.941 0.585 0 2.209 9.564 0 0 3.682 -23.013 0 0 -3.682 9.263 0 0 -2.209 -1.942 -0.585 -1.642 -0.739 -1.644 -1.177 -1.346 -1.325 -1.046 -1.622 -0.895 -1.618 -0.451 -1.915 -0.297 -1.916 0.297 -1.91 0.451 -1.771 0.895 -1.767 1.046 -1.47 1.346 -1.325 1.644 -1.18 1.642 -0.884 1.942 -0.441 0 -2.06 -3.883 0.144 0 -3.384 12.402 0 0 3.384 -4.333 -0.144 0 2.06zm0 18.405l0 -15.165 1.344 0.442 1.048 0.734 1.044 0.591 0.897 1.031 0.599 1.029 0.598 1.18 0.298 1.177 0.148 1.324 -0.148 1.325 -0.298 1.326 -0.598 1.18 -0.599 1.033 -0.897 1.027 -1.044 0.59 -1.048 0.734 -1.344 0.442zm-4.186 -15.017l0 15.017 -1.195 -0.442 -1.043 -0.734 -1.049 -0.734 -0.897 -1.033 -0.747 -1.031 -0.447 -1.177 -0.301 -1.181 -0.297 -1.325 0.297 -1.176 0.301 -1.176 0.447 -1.181 0.747 -1.032 0.897 -1.027 1.049 -0.591 1.043 -0.735 1.195 -0.442zm-62.105 107.132c27.187,-4.099 43.143,4.157 64.869,5.81 36.31,-2.57 46.367,-10.703 62.879,-3.917 -1.53,3.551 -3.652,6.851 -6.205,10.647 -25.45,-3.856 -31.846,6.481 -57.48,6.545 -23.468,-0.306 -25.835,-8.987 -57.056,-6.846 -2.444,-2.926 -5.085,-7.733 -7.007,-12.239zm133.086 -17.634l-0.896 0 -0.747 0 -0.897 0 -0.9 0 -0.595 0 -0.894 0 -0.902 0 -132.697 0 0 -5.741 4.48 -1.915 4.486 -3.683 2.688 -2.501 3.44 -1.181 1.342 -1.766 1.049 -0.293 0.895 0.149 0.897 0.883 1.045 1.027 0.896 0.739 0.748 1.032 0.896 1.177 0.599 0.734 0.597 1.032 0.748 0.883 0.897 1.033 0.446 1.032 0.599 0.735 0.301 0.589 0.149 0.145 0.445 0.441 1.05 0.442 1.192 0 1.347 -0.883 0.748 -0.734 0.598 -1.032 0.743 -0.884 0.748 -1.032 0.599 -0.735 0.599 -0.883 0.147 -0.734 0.15 -0.591 0.45 -1.767 1.346 -1.18 1.644 -0.442 1.643 0.883 1.044 1.329 0.451 1.028 1.044 0.591 2.243 1.031 1.644 0.443 1.341 0.586 1.199 0.441 0.895 0.442 0.897 0.297 0.45 0.293 0.297 0.149 0.301 0 0.15 0 0.444 0.144 0.748 0 0.896 0 1.049 -0.144 0.748 -0.442 0.896 -0.739 0.746 -1.027 0.75 -1.181 1.044 -1.028 1.045 -1.181 0.896 -1.032 1.049 -0.883 0.895 -0.735 0.748 -0.441 0.149 -0.149 0.148 -0.144 0.148 -0.591 0.599 -0.441 0.451 -0.884 0.747 -0.738 0.748 -0.884 0.742 -0.735 0.748 -0.59 0.9 -0.586 1.046 -0.297 1.191 -0.442 1.199 -0.441 1.045 -0.145 0.896 -0.297 0.747 -0.144 0.15 0 0.301 0 1.045 0 1.345 -0.885 1.645 -2.211 0.445 -1.471 0.599 -1.324 0.301 -1.18 0.297 -1.033 0.15 -0.586 0.301 -0.59 0 -0.293 0 -0.149 0.297 -0.293 0.445 -0.739 0.748 -0.884 0.302 -1.175 0.297 -0.739 0.148 -1.028 0.154 -1.325 0.297 -1.181 0.148 -1.176 0.299 -1.032 0.152 -0.735 0 -0.297 0.149 -0.586 0.297 -1.767 0.895 -1.325 1.495 -0.441 0.897 0.292 0.598 0.442 0.451 0.735 0.446 0.883 0.148 0.739 0.153 0.735 0.149 0.883 0 0.442 0 0.883 0.149 1.325 0 1.623 0.149 1.911 0.148 1.622 0 1.618 0.302 1.622 0 0.735 0.148 0.884 0.149 1.032 0.148 1.324 0.148 1.325 0.451 1.325 0.148 1.032 0.149 0.735 0 0.298 0 0.144 0.302 0.297 0.446 0.586 0.598 0.297 0.897 0.442 1.049 0.586 0.897 1.181 0.593 1.473 0.598 1.47 0.302 1.032 0.149 0.441 0 0.294 0.595 0 1.197 -0.442 1.495 -0.442 1.046 -0.883 1.345 -0.735 1.346 -0.442 1.194 -0.149 0.451 0 2.39 -0.144 0.149 -0.148 0.446 -0.297 0.9 -0.442 1.341 -0.145 1.645 -0.149 1.198 -0.441 0.894 -0.883 1.046 -0.883 0.449 -0.442 0.748 -0.59 0.596 -0.294 0.899 -0.442 0.897 -0.148 0.895 -0.441 0.897 -0.146 0.748 0 0.894 0 0.898 -0.148 0.896 -0.149 1.049 -0.292 1.044 -0.442 1.044 -0.591 1.198 -0.734 1.194 -1.032 1.05 -0.883 0.894 -0.883 1.045 -1.032 0.897 -1.033 0.747 -0.735 0.896 -0.734 0.747 -0.739 -0.297 34.9z"/>
   <path class="fil9" d="M457.112 325.795c-2.192,10.15 -2.161,17.009 -13.858,16.252l0.043 -2.034c1.385,-9.478 8.716,-6.612 13.815,-14.218zm-13.951 0.471l0 102.642 -2.976 0 0 -9.772c-11.477,0.659 -11.462,-6.183 -13.642,-16.269 4.918,7.334 11.905,4.934 13.642,13.246l0 -13.761c-11.477,0.659 -11.462,-6.183 -13.642,-16.269 4.918,7.334 11.905,4.934 13.642,13.246l0 -13.768c-11.477,0.658 -11.462,-6.183 -13.642,-16.266 4.918,7.334 11.905,4.935 13.642,13.242l0 -13.751c-11.477,0.659 -11.462,-6.184 -13.642,-16.27 4.918,7.334 11.905,4.935 13.642,13.246l0 -13.768c-11.477,0.658 -11.462,-6.183 -13.642,-16.266 4.918,7.334 11.905,4.936 13.642,13.242l0 -13.76c-11.477,0.658 -11.462,-6.183 -13.642,-16.265 4.918,7.334 11.905,4.935 13.642,13.241l0 -6.042c-8.818,-10.091 -2.24,-18.716 1.426,-30.094 4.159,10.583 10.8,21.655 1.55,30.216zm13.951 83.455c-2.192,10.146 -2.161,17.009 -13.858,16.253l0.043 -2.039c1.385,-9.475 8.716,-6.608 13.815,-14.214zm0 -16.783c-2.192,10.146 -2.161,17.008 -13.858,16.252 0.018,-0.679 0.031,-1.359 0.043,-2.038 1.385,-9.475 8.716,-6.609 13.815,-14.214zm0 -16.788c-2.192,10.15 -2.161,17.009 -13.858,16.252 0.018,-0.675 0.031,-1.354 0.043,-2.034 1.385,-9.479 8.716,-6.612 13.815,-14.218zm0 -16.783c-2.192,10.145 -2.161,17.008 -13.858,16.252 0.018,-0.68 0.031,-1.359 0.043,-2.039 1.385,-9.474 8.716,-6.607 13.815,-14.213zm0 -16.789c-2.192,10.151 -2.161,17.009 -13.858,16.253 0.018,-0.675 0.031,-1.355 0.043,-2.034 1.385,-9.479 8.716,-6.612 13.815,-14.219z"/>
   <path class="fil9" d="M647.247 402.867c-2.183,10.103 -2.161,16.949 -13.7,16.265l0 9.776 -2.981 0 0 -102.642c-9.25,-8.561 -2.608,-19.633 1.55,-30.216 3.665,11.378 10.243,20.003 1.431,30.094l0 6.315c1.64,-8.634 8.731,-6.104 13.7,-13.514 -2.183,10.099 -2.161,16.945 -13.7,16.261l0 14.036c1.64,-8.634 8.731,-6.103 13.7,-13.514 -2.183,10.1 -2.161,16.945 -13.7,16.261l0 14.045c1.64,-8.638 8.731,-6.107 13.7,-13.518 -2.183,10.103 -2.161,16.949 -13.7,16.266l0 14.027c1.64,-8.634 8.731,-6.103 13.7,-13.514 -2.183,10.1 -2.161,16.946 -13.7,16.261l0 14.044c1.64,-8.638 8.731,-6.106 13.7,-13.517 -2.183,10.103 -2.161,16.949 -13.7,16.266l0 14.035c1.64,-8.638 8.731,-6.107 13.7,-13.517zm-30.569 -77.072c2.191,10.15 2.163,17.009 13.858,16.252l-0.043 -2.034c-1.384,-9.478 -8.715,-6.612 -13.815,-14.218zm0 16.783c2.191,10.151 2.163,17.009 13.858,16.253 -0.013,-0.675 -0.026,-1.355 -0.043,-2.034 -1.384,-9.479 -8.715,-6.612 -13.815,-14.219zm0 16.789c2.191,10.145 2.163,17.008 13.858,16.252 -0.013,-0.68 -0.026,-1.359 -0.043,-2.039 -1.384,-9.474 -8.715,-6.607 -13.815,-14.213zm0 16.783c2.191,10.15 2.163,17.009 13.858,16.252 -0.013,-0.675 -0.026,-1.354 -0.043,-2.034 -1.384,-9.479 -8.715,-6.612 -13.815,-14.218zm0 16.788c2.191,10.146 2.163,17.008 13.858,16.252 -0.013,-0.679 -0.026,-1.359 -0.043,-2.038 -1.384,-9.475 -8.715,-6.609 -13.815,-14.214zm0 16.783c2.191,10.146 2.163,17.009 13.858,16.253l-0.043 -2.039c-1.384,-9.475 -8.715,-6.608 -13.815,-14.214z"/>
   <path class="fil9" d="M659.458 513.909c14.217,0.817 26.872,-1.887 38.556,-6.774l-6.577 -8.688 6.726 -13.253c-20.749,8.177 -43.135,6.752 -64.556,2.062l0 21.204c4.927,2.241 10.914,3.367 16.287,4.124 2.798,1.033 6.545,0.953 9.564,1.325zm-238.915 1.802c-14.217,1.032 -26.87,-1.481 -38.553,-6.192l6.575 -8.788 -6.725 -13.152c20.749,7.865 43.135,6.103 64.557,1.088l0 21.206c-4.93,2.315 -10.914,3.531 -16.289,4.368 -2.798,1.076 -6.543,1.053 -9.565,1.47zm26.4 -9.786c-0.386,-4.488 0.758,-15.438 0.758,-19.976 -2.944,-2.228 -4.249,-4.269 -2.066,-6.74 -0.247,-0.24 -0.607,-0.483 -0.855,-0.723 -3.452,3.745 -0.531,5.992 1.002,8.111 -3.48,2.196 -7.898,2.49 -11.92,2.946 -1.971,-6.497 -1.829,-12.038 3.155,-15.272 7.194,-6.057 10.68,-0.618 14.528,5.269 8.665,14.579 28.048,40.31 87.94,44.268 57.834,-4.797 78.248,-30.861 86.914,-45.572 3.846,-5.944 9.393,-11.468 16.588,-5.519 4.982,3.158 5.126,8.698 3.153,15.225 -4.021,-0.396 -8.439,-0.623 -11.919,-2.766 1.532,-2.144 4.454,-4.434 1.001,-8.127 -0.248,0.244 -0.608,0.492 -0.856,0.737 2.185,2.439 0.88,4.498 -2.062,6.77 0,4.54 0.113,14.98 -0.275,19.473 -23.557,29.169 -48.57,38.797 -91.422,42.295 -0.194,-0.001 -0.386,-0.005 -0.579,-0.008 -0.009,0 -0.02,0 -0.03,0 -0.2,0.005 -0.402,0.014 -0.603,0.018 -41.242,-1.724 -68.958,-12.896 -92.452,-40.409z"/>
   <path class="fil9" d="M657.844 483.722c14.216,0.818 26.87,-1.886 38.555,-6.773l-6.577 -8.688 6.725 -13.254c-20.748,8.179 -43.134,6.753 -64.557,2.062l0 21.205c4.93,2.241 10.915,3.366 16.29,4.123 2.798,1.034 6.542,0.954 9.564,1.325zm-251.953 2.062c13.446,0 26.909,-0.905 39.601,-5.595l0.149 -22.825c-15.972,5.246 -32.753,6.74 -49.463,5.006 -4.513,-1.046 -8.652,-2.015 -13.001,-3.681 1.392,5.488 2.633,9.232 6.577,13.547 -3.541,1.745 -5.331,5.233 -6.428,8.836 7.3,2.65 14.85,3.913 22.565,4.712zm126.723 33.281c13.148,0 25.383,-0.877 37.957,-5.007 14.708,-5.041 27.884,-11.573 39.004,-22.531 4.19,-3.67 7.282,-8.206 11.208,-12.075 2.924,-4.035 5.88,-7.566 7.771,-12.222 1.717,-4.231 2.24,-7.684 2.24,-12.223 5.072,-7.217 9.445,-14.962 5.083,-23.561 -0.64,-0.472 -1.074,-1.057 -1.646,-1.62 0.248,-0.244 0.5,-0.492 0.747,-0.737 6.647,4.367 3.98,16.089 0.449,21.501l-2.39 3.975c3.48,2.144 8.083,2.55 12.103,2.946 2.505,-8.885 0.883,-15.899 -2.839,-24.15 -4.751,-6.243 -10.286,-7.566 -17.186,-3.241 -5.952,4.695 -7.425,8.536 -10.459,15.463l-0.3 0.147c0,0.383 0.151,0.655 0.151,1.031 -7.519,18.11 -20.151,31.983 -37.359,41.674l-9.116 4.271c-11.917,4.036 -22.374,5.519 -34.969,5.154 -17.376,-1.007 -35.834,-7.59 -48.716,-19.438 -5.471,-5.055 -10.393,-9.951 -14.496,-16.199 -5.346,-7.463 -7.199,-16.269 -12.103,-24.003 -5.045,-7.454 -12.263,-12.336 -20.923,-7.216 -5.783,7.454 -6.725,14.717 -6.725,23.856 0.463,2.278 0.332,3.124 2.094,4.86l12.402 -3.535c-2.996,-7.013 -8.187,-17.93 -2.54,-24.886 0.436,-0.429 0.852,-0.671 1.196,-1.179 0.334,0 0.438,-0.004 0.747,0.148l-1.645 2.798c-2.465,7.694 -1.066,13.833 2.84,20.763 0.402,1.242 1.248,2.12 1.65,3.364 -1.289,7.124 3.252,11.209 5.805,16.008 6.228,10.228 12.927,18.554 22.581,25.689 10.792,7.533 23.053,14.033 36.164,16.494 6.972,2.059 14.006,2.97 21.22,3.681z"/>
   <path class="fil7" d="M464.723 316.699l146.185 0 0 114.117c-4.648,25.225 -13.894,39.694 -36.143,52.69 -3.936,1.991 -7.379,3.443 -11.539,4.903l-5.958 1.708c-2.055,0.439 -4.128,0.824 -6.183,1.261l-6.167 0.766c-14.505,0.777 -23.313,-0.554 -36.972,-5.444 -25.887,-11.002 -38.091,-28.91 -43.947,-55.844l0 -114.157 0.724 0zm144.738 1.462l-144.015 0 0 112.541 1.614 7.438 2.164 6.86 2.725 6.421 3.222 5.938 3.685 5.44 4.112 4.966 4.474 4.462 4.865 4.024 5.111 3.494 5.41 3.037 5.615 2.548 5.832 2.087 5.965 1.602 6.058 1.125 6.151 0.653 6.157 0.181 6.141 -0.285 6.164 -0.765 5.973 -1.218 5.936 -1.701 5.72 -2.155 5.517 -2.62 5.288 -3.087 5.014 -3.559 4.683 -4.014 4.313 -4.469 3.921 -4.934 3.469 -5.38 3.004 -5.857 2.466 -6.263 1.926 -6.779 1.32 -7.185 0 -112.546z"/>
   <path class="fil0" d="M458.253 512.624l9.084 -9.943 3.473 3.083c0.785,0.696 1.34,1.276 1.666,1.737 0.461,0.644 0.737,1.319 0.832,2.025 0.125,0.915 0.007,1.835 -0.359,2.758 -0.366,0.926 -0.953,1.83 -1.764,2.715 -0.689,0.755 -1.389,1.345 -2.104,1.769 -0.71,0.424 -1.382,0.706 -2.012,0.838 -0.628,0.134 -1.209,0.163 -1.742,0.085 -0.532,-0.074 -1.086,-0.263 -1.659,-0.567 -0.575,-0.306 -1.166,-0.729 -1.776,-1.27l-3.639 -3.23zm2.406 0.01l2.153 1.911c0.665,0.59 1.245,0.995 1.735,1.208 0.49,0.212 0.948,0.308 1.376,0.286 0.6,-0.028 1.233,-0.231 1.889,-0.6 0.657,-0.372 1.329,-0.929 2.017,-1.681 0.949,-1.04 1.505,-1.993 1.669,-2.857 0.165,-0.869 0.085,-1.615 -0.237,-2.245 -0.232,-0.453 -0.748,-1.033 -1.541,-1.735l-2.122 -1.882 -6.939 7.595zm22.964 17.733l5.953 -12.026 1.613 0.776 -5.953 12.025 -1.613 -0.775zm27.972 3.926l0.33 -1.533 5.627 1.169 -1.046 4.854c-1.01,0.499 -2.01,0.822 -3.003,0.974 -0.992,0.148 -1.971,0.121 -2.937,-0.081 -1.304,-0.274 -2.433,-0.796 -3.378,-1.57 -0.949,-0.772 -1.579,-1.739 -1.901,-2.892 -0.318,-1.156 -0.338,-2.377 -0.063,-3.663 0.275,-1.274 0.805,-2.405 1.583,-3.395 0.777,-0.993 1.734,-1.649 2.863,-1.974 1.129,-0.32 2.357,-0.343 3.68,-0.066 0.958,0.201 1.793,0.535 2.503,1.005 0.711,0.467 1.228,1.021 1.548,1.662 0.324,0.641 0.505,1.424 0.547,2.353l-1.679 0.098c-0.057,-0.71 -0.192,-1.286 -0.403,-1.728 -0.214,-0.443 -0.572,-0.836 -1.074,-1.18 -0.498,-0.344 -1.085,-0.588 -1.753,-0.727 -0.803,-0.169 -1.526,-0.193 -2.163,-0.074 -0.639,0.117 -1.177,0.336 -1.624,0.653 -0.443,0.317 -0.814,0.689 -1.116,1.119 -0.512,0.737 -0.871,1.58 -1.075,2.527 -0.252,1.167 -0.258,2.185 -0.02,3.057 0.238,0.87 0.706,1.578 1.404,2.121 0.697,0.544 1.48,0.909 2.356,1.092 0.764,0.16 1.538,0.17 2.323,0.032 0.789,-0.134 1.403,-0.328 1.846,-0.578l0.527 -2.438 -3.902 -0.817zm24.633 8.296l0.711 -13.361 1.793 0.093 -0.71 13.361 -1.794 -0.093zm25.388 -2.324l-2.285 -11.584 -4.391 0.842 -0.306 -1.551 10.563 -2.023 0.306 1.55 -4.409 0.845 2.285 11.583 -1.763 0.338zm27.197 -21.997l1.643 -0.72 3.192 7.063c0.554,1.227 0.854,2.264 0.897,3.112 0.043,0.846 -0.199,1.656 -0.731,2.431 -0.532,0.779 -1.395,1.427 -2.589,1.951 -1.162,0.509 -2.204,0.732 -3.118,0.659 -0.918,-0.069 -1.705,-0.408 -2.357,-1.018 -0.656,-0.61 -1.273,-1.561 -1.857,-2.855l-3.193 -7.063 1.641 -0.72 3.189 7.055c0.479,1.061 0.933,1.799 1.359,2.213 0.427,0.416 0.949,0.651 1.556,0.711 0.612,0.059 1.271,-0.066 1.976,-0.375 1.208,-0.53 1.946,-1.178 2.215,-1.944 0.269,-0.763 0.058,-1.911 -0.635,-3.445l-3.188 -7.055zm24.014 0.652l-9.433 -9.625 1.948 -1.852 8.987 4.616c0.836,0.43 1.458,0.756 1.863,0.981 -0.231,-0.456 -0.562,-1.135 -0.992,-2.04l-4.223 -8.92 1.738 -1.655 9.433 9.625 -1.246 1.185 -7.895 -8.055 5.056 10.756 -1.167 1.11 -10.851 -5.504 8.027 8.191 -1.245 1.187z"/>
   <path class="fil0" d="M453.501 471.687l9.812 -6.77 -2.567 -3.612 1.314 -0.907 6.174 8.69 -1.314 0.906 -2.577 -3.628 -9.812 6.771 -1.03 -1.45zm9.492 12.22l9.603 -9.464 6.943 6.842 -1.132 1.117 -5.674 -5.59 -2.941 2.897 5.314 5.236 -1.128 1.111 -5.312 -5.237 -3.269 3.222 5.896 5.811 -1.133 1.117 -7.167 -7.062zm14.753 13.446l7.79 -10.964 4.933 3.403c0.991,0.685 1.673,1.305 2.05,1.857 0.375,0.552 0.542,1.183 0.499,1.896 -0.048,0.713 -0.287,1.369 -0.715,1.971 -0.554,0.779 -1.271,1.258 -2.163,1.438 -0.891,0.181 -1.921,-0.025 -3.092,-0.616 0.26,0.454 0.428,0.839 0.5,1.16 0.155,0.684 0.215,1.453 0.188,2.301l-0.186 4.319 -1.852 -1.278 0.15 -3.297c0.036,-0.953 0.041,-1.703 0.007,-2.243 -0.028,-0.542 -0.103,-0.958 -0.226,-1.248 -0.12,-0.292 -0.274,-0.543 -0.462,-0.756 -0.144,-0.15 -0.404,-0.355 -0.784,-0.618l-1.707 -1.178 -3.459 4.868 -1.471 -1.015zm5.821 -5.109l3.167 2.185c0.67,0.462 1.249,0.758 1.723,0.881 0.479,0.124 0.924,0.104 1.334,-0.061 0.41,-0.166 0.742,-0.425 0.994,-0.779 0.368,-0.519 0.481,-1.075 0.336,-1.674 -0.143,-0.597 -0.629,-1.18 -1.454,-1.75l-3.522 -2.429 -2.578 3.627zm12.451 15.477l5.088 -12.409 9.103 3.624 -0.601 1.465 -7.437 -2.962 -1.559 3.8 6.966 2.773 -0.596 1.457 -6.966 -2.774 -1.733 4.224 7.732 3.078 -0.6 1.466 -9.397 -3.742zm19.233 2.115l1.692 0.176c-0.052,0.673 0.026,1.245 0.232,1.723 0.204,0.478 0.585,0.903 1.139,1.279 0.554,0.375 1.211,0.635 1.969,0.78 0.673,0.129 1.285,0.144 1.839,0.048 0.555,-0.1 0.992,-0.296 1.312,-0.59 0.319,-0.298 0.52,-0.646 0.6,-1.053 0.082,-0.413 0.031,-0.795 -0.152,-1.151 -0.183,-0.354 -0.532,-0.689 -1.047,-1.003 -0.332,-0.206 -1.078,-0.571 -2.247,-1.097 -1.166,-0.525 -1.972,-0.962 -2.413,-1.313 -0.571,-0.449 -0.965,-0.95 -1.183,-1.496 -0.214,-0.546 -0.262,-1.12 -0.142,-1.727 0.131,-0.66 0.442,-1.245 0.937,-1.746 0.496,-0.505 1.141,-0.835 1.932,-0.995 0.795,-0.156 1.638,-0.15 2.535,0.022 0.99,0.189 1.828,0.512 2.524,0.972 0.692,0.457 1.181,1.03 1.469,1.716 0.283,0.686 0.368,1.42 0.245,2.196l-1.716 -0.198c0.07,-0.847 -0.113,-1.536 -0.554,-2.058 -0.441,-0.527 -1.172,-0.885 -2.196,-1.082 -1.069,-0.204 -1.883,-0.16 -2.448,0.131 -0.564,0.293 -0.901,0.711 -1.008,1.251 -0.093,0.475 0.003,0.897 0.289,1.266 0.281,0.371 1.104,0.852 2.475,1.445 1.371,0.596 2.301,1.063 2.787,1.404 0.707,0.504 1.192,1.06 1.456,1.67 0.263,0.611 0.322,1.271 0.183,1.974 -0.137,0.701 -0.468,1.32 -0.997,1.86 -0.529,0.54 -1.208,0.908 -2.037,1.108 -0.828,0.197 -1.717,0.205 -2.668,0.022 -1.207,-0.231 -2.185,-0.596 -2.931,-1.101 -0.748,-0.502 -1.283,-1.144 -1.611,-1.931 -0.326,-0.782 -0.416,-1.62 -0.265,-2.502zm18.921 0.319c-0.081,-2.221 0.463,-3.979 1.628,-5.276 1.167,-1.296 2.706,-1.978 4.621,-2.044 1.25,-0.044 2.393,0.213 3.418,0.767 1.026,0.558 1.823,1.353 2.389,2.391 0.565,1.034 0.87,2.225 0.918,3.56 0.048,1.357 -0.184,2.582 -0.704,3.669 -0.517,1.092 -1.275,1.928 -2.274,2.514 -1.002,0.587 -2.088,0.898 -3.267,0.939 -1.28,0.043 -2.431,-0.219 -3.458,-0.795 -1.029,-0.573 -1.82,-1.378 -2.377,-2.412 -0.555,-1.032 -0.854,-2.138 -0.894,-3.313zm1.851 -0.035c0.059,1.613 0.543,2.866 1.454,3.764 0.914,0.897 2.033,1.323 3.361,1.277 1.353,-0.046 2.449,-0.551 3.287,-1.519 0.839,-0.968 1.232,-2.312 1.17,-4.034 -0.038,-1.087 -0.261,-2.031 -0.662,-2.83 -0.402,-0.801 -0.972,-1.411 -1.704,-1.835 -0.736,-0.42 -1.551,-0.617 -2.445,-0.586 -1.274,0.044 -2.353,0.511 -3.239,1.406 -0.885,0.891 -1.293,2.345 -1.222,4.357zm3.226 -7.831l1.141 -2.597 2.185 -0.075 -1.945 2.624 -1.381 0.048zm17.85 12.731l-3.514 -12.928 4.948 -1.306c0.871,-0.231 1.548,-0.364 2.028,-0.403 0.673,-0.065 1.269,-0.007 1.786,0.176 0.515,0.18 0.979,0.506 1.391,0.968 0.411,0.466 0.702,1.019 0.875,1.66 0.3,1.098 0.198,2.125 -0.303,3.074 -0.505,0.946 -1.684,1.667 -3.538,2.157l-3.367 0.888 1.43 5.256 -1.736 0.458zm-0.108 -7.24l3.393 -0.896c1.12,-0.296 1.862,-0.711 2.221,-1.248 0.359,-0.536 0.437,-1.176 0.235,-1.922 -0.149,-0.542 -0.412,-0.97 -0.795,-1.281 -0.382,-0.313 -0.815,-0.469 -1.303,-0.473 -0.314,0.003 -0.862,0.105 -1.65,0.314l-3.357 0.886 1.256 4.62zm15.953 -3.877c-0.987,-1.997 -1.217,-3.821 -0.689,-5.473 0.531,-1.652 1.655,-2.893 3.377,-3.72 1.125,-0.541 2.276,-0.764 3.442,-0.669 1.166,0.098 2.223,0.505 3.168,1.226 0.943,0.719 1.712,1.684 2.308,2.886 0.604,1.221 0.896,2.431 0.872,3.633 -0.023,1.204 -0.371,2.271 -1.041,3.208 -0.673,0.937 -1.536,1.657 -2.596,2.167 -1.152,0.553 -2.312,0.775 -3.489,0.66 -1.177,-0.111 -2.231,-0.529 -3.165,-1.252 -0.934,-0.72 -1.664,-1.611 -2.187,-2.666zm1.679 -0.776c0.718,1.451 1.677,2.402 2.882,2.856 1.205,0.454 2.403,0.394 3.598,-0.179 1.216,-0.585 2.007,-1.486 2.376,-2.706 0.367,-1.22 0.169,-2.606 -0.596,-4.155 -0.484,-0.977 -1.077,-1.75 -1.775,-2.319 -0.698,-0.57 -1.469,-0.899 -2.314,-0.993 -0.847,-0.089 -1.671,0.058 -2.476,0.444 -1.144,0.55 -1.937,1.41 -2.377,2.582 -0.443,1.17 -0.213,2.661 0.682,4.47zm21.051 -4.263l-8.175 -10.689 1.437 -1.067 7.21 9.428 5.342 -3.967 0.964 1.262 -6.778 5.033zm13.912 -11.671l-9.932 -9.128 1.224 -1.294 9.933 9.127 -1.225 1.295zm5.519 -12.483l0.826 -1.467c0.608,0.31 1.174,0.465 1.699,0.465 0.526,0 1.072,-0.179 1.64,-0.534 0.567,-0.357 1.067,-0.851 1.498,-1.482 0.383,-0.56 0.638,-1.11 0.763,-1.65 0.124,-0.542 0.112,-1.015 -0.038,-1.42 -0.154,-0.407 -0.401,-0.725 -0.749,-0.956 -0.354,-0.236 -0.73,-0.339 -1.134,-0.311 -0.403,0.025 -0.851,0.213 -1.346,0.556 -0.323,0.222 -0.956,0.756 -1.903,1.611 -0.945,0.852 -1.67,1.412 -2.168,1.675 -0.645,0.343 -1.266,0.505 -1.861,0.488 -0.594,-0.018 -1.15,-0.199 -1.668,-0.544 -0.567,-0.376 -0.991,-0.888 -1.267,-1.534 -0.277,-0.646 -0.334,-1.361 -0.173,-2.141 0.164,-0.782 0.499,-1.544 1.011,-2.29 0.563,-0.824 1.191,-1.459 1.894,-1.91 0.697,-0.449 1.424,-0.67 2.177,-0.662 0.751,0.012 1.47,0.221 2.147,0.635l-0.855 1.479c-0.764,-0.395 -1.479,-0.498 -2.14,-0.301 -0.663,0.194 -1.285,0.717 -1.867,1.57 -0.608,0.888 -0.887,1.644 -0.834,2.271 0.052,0.626 0.311,1.095 0.774,1.403 0.406,0.27 0.839,0.347 1.294,0.233 0.457,-0.11 1.229,-0.669 2.317,-1.681 1.093,-1.01 1.892,-1.672 2.402,-1.979 0.745,-0.444 1.455,-0.667 2.127,-0.669 0.675,0.002 1.313,0.205 1.916,0.606 0.6,0.398 1.05,0.941 1.348,1.632 0.298,0.69 0.377,1.45 0.241,2.28 -0.14,0.827 -0.482,1.638 -1.024,2.428 -0.687,1.006 -1.411,1.75 -2.172,2.228 -0.761,0.483 -1.571,0.719 -2.434,0.709 -0.86,-0.01 -1.675,-0.256 -2.441,-0.738z"/>
   <path class="fil0" d="M391.922 504.876l1.684 0.233c-0.075,0.67 -0.017,1.246 0.17,1.73 0.189,0.484 0.553,0.921 1.092,1.316 0.542,0.395 1.19,0.677 1.941,0.848 0.668,0.152 1.278,0.189 1.836,0.111 0.558,-0.082 1.001,-0.261 1.331,-0.545 0.33,-0.287 0.542,-0.628 0.637,-1.031 0.097,-0.41 0.06,-0.793 -0.112,-1.155 -0.168,-0.361 -0.506,-0.707 -1.008,-1.037 -0.327,-0.219 -1.058,-0.61 -2.208,-1.174 -1.146,-0.564 -1.936,-1.03 -2.362,-1.394 -0.556,-0.469 -0.931,-0.983 -1.13,-1.536 -0.195,-0.554 -0.222,-1.128 -0.081,-1.729 0.152,-0.656 0.485,-1.23 0.997,-1.714 0.514,-0.488 1.171,-0.795 1.967,-0.928 0.8,-0.128 1.641,-0.093 2.53,0.109 0.983,0.224 1.81,0.575 2.488,1.058 0.675,0.481 1.145,1.07 1.406,1.766 0.259,0.695 0.317,1.431 0.169,2.203l-1.709 -0.258c0.101,-0.844 -0.057,-1.538 -0.479,-2.075 -0.422,-0.541 -1.14,-0.925 -2.157,-1.156 -1.059,-0.241 -1.875,-0.225 -2.451,0.047 -0.572,0.273 -0.923,0.678 -1.051,1.215 -0.109,0.471 -0.026,0.896 0.244,1.274 0.268,0.381 1.074,0.89 2.423,1.529 1.348,0.643 2.26,1.141 2.734,1.499 0.689,0.527 1.155,1.1 1.395,1.717 0.241,0.621 0.278,1.281 0.115,1.979 -0.164,0.695 -0.516,1.302 -1.063,1.823 -0.549,0.523 -1.238,0.867 -2.074,1.038 -0.835,0.168 -1.724,0.144 -2.666,-0.07 -1.198,-0.272 -2.163,-0.671 -2.889,-1.201 -0.73,-0.526 -1.244,-1.187 -1.543,-1.984 -0.297,-0.793 -0.359,-1.632 -0.176,-2.508zm26.806 -6.551l1.798 -0.062 0.274 7.727c0.047,1.342 -0.07,2.415 -0.353,3.217 -0.28,0.801 -0.813,1.462 -1.602,1.984 -0.787,0.526 -1.833,0.808 -3.143,0.853 -1.27,0.044 -2.319,-0.135 -3.141,-0.539 -0.824,-0.402 -1.423,-1.009 -1.797,-1.816 -0.377,-0.806 -0.587,-1.916 -0.637,-3.331l-0.274 -7.728 1.795 -0.061 0.273 7.718c0.042,1.161 0.182,2.013 0.419,2.553 0.238,0.544 0.633,0.954 1.174,1.236 0.545,0.28 1.203,0.406 1.973,0.379 1.323,-0.045 2.253,-0.372 2.795,-0.983 0.538,-0.609 0.778,-1.751 0.718,-3.429l-0.272 -7.718zm11.43 12.159l-2.591 -13.134 5.003 -0.958c1.016,-0.195 1.859,-0.216 2.525,-0.072 0.67,0.148 1.233,0.466 1.69,0.953 0.455,0.484 0.746,1.027 0.866,1.633 0.109,0.559 0.059,1.119 -0.154,1.673 -0.21,0.554 -0.598,1.045 -1.162,1.47 0.854,0.077 1.549,0.358 2.093,0.834 0.546,0.479 0.893,1.101 1.045,1.866 0.121,0.614 0.1,1.212 -0.059,1.791 -0.158,0.58 -0.406,1.049 -0.736,1.411 -0.332,0.361 -0.777,0.668 -1.331,0.927 -0.555,0.259 -1.256,0.469 -2.108,0.632l-5.081 0.974zm0.264 -7.953l2.881 -0.552c0.78,-0.15 1.331,-0.309 1.653,-0.475 0.421,-0.217 0.716,-0.499 0.882,-0.848 0.166,-0.349 0.206,-0.754 0.115,-1.212 -0.086,-0.434 -0.268,-0.8 -0.543,-1.089 -0.28,-0.293 -0.629,-0.46 -1.044,-0.508 -0.419,-0.047 -1.107,0.022 -2.065,0.205l-2.663 0.511 0.784 3.968zm1.195 6.065l3.317 -0.637c0.572,-0.109 0.966,-0.207 1.19,-0.29 0.39,-0.151 0.706,-0.335 0.946,-0.556 0.239,-0.217 0.416,-0.504 0.529,-0.857 0.111,-0.355 0.129,-0.739 0.046,-1.157 -0.096,-0.49 -0.308,-0.89 -0.634,-1.206 -0.326,-0.312 -0.73,-0.498 -1.212,-0.557 -0.477,-0.058 -1.143,-0.007 -1.991,0.156l-3.081 0.59 0.89 4.514z"/>
   <path class="fil0" d="M641.865 508.596l2.823 -13.087 4.574 0.957c1.032,0.216 1.807,0.446 2.326,0.685 0.723,0.33 1.304,0.78 1.745,1.343 0.573,0.732 0.939,1.585 1.089,2.566 0.152,0.981 0.103,2.054 -0.149,3.221 -0.215,0.993 -0.521,1.849 -0.925,2.567 -0.401,0.718 -0.839,1.293 -1.318,1.717 -0.475,0.426 -0.963,0.738 -1.463,0.932 -0.5,0.199 -1.076,0.307 -1.727,0.328 -0.653,0.018 -1.38,-0.057 -2.181,-0.225l-4.794 -1.004zm2.091 -1.177l2.835 0.594c0.876,0.183 1.581,0.248 2.114,0.191 0.533,-0.058 0.978,-0.2 1.338,-0.431 0.506,-0.32 0.949,-0.806 1.33,-1.449 0.382,-0.647 0.681,-1.461 0.894,-2.451 0.294,-1.367 0.294,-2.467 -0.003,-3.296 -0.298,-0.833 -0.746,-1.44 -1.344,-1.827 -0.432,-0.278 -1.174,-0.525 -2.216,-0.743l-2.792 -0.585 -2.156 9.997zm17.749 3.816l-0.474 -13.371 9.808 -0.338 0.057 1.578 -8.015 0.276 0.146 4.094 7.505 -0.258 0.056 1.569 -7.506 0.258 0.162 4.551 8.33 -0.286 0.055 1.579 -10.124 0.348zm19.163 -1.717l-2.125 -13.214 1.774 -0.277 2.124 13.214 -1.773 0.277z"/>
   <path class="fil0" d="M396.285 481.168l-1.641 -0.284 1.844 -10.297c-0.462,0.302 -1.044,0.583 -1.753,0.843 -0.711,0.259 -1.336,0.438 -1.881,0.532l0.281 -1.559c0.993,-0.266 1.89,-0.642 2.686,-1.127 0.794,-0.487 1.388,-0.988 1.776,-1.508l1.057 0.183 -2.369 13.217zm10.084 -6.342c-0.688,-0.261 -1.194,-0.625 -1.521,-1.094 -0.324,-0.466 -0.481,-1.023 -0.47,-1.666 0.017,-0.974 0.386,-1.784 1.109,-2.434 0.725,-0.651 1.672,-0.968 2.851,-0.947 1.187,0.021 2.135,0.376 2.846,1.066 0.709,0.692 1.055,1.521 1.037,2.495 -0.011,0.62 -0.183,1.156 -0.522,1.61 -0.339,0.452 -0.845,0.798 -1.523,1.036 0.826,0.282 1.455,0.721 1.88,1.327 0.423,0.601 0.629,1.318 0.614,2.142 -0.02,1.145 -0.449,2.096 -1.281,2.86 -0.836,0.764 -1.923,1.134 -3.265,1.111 -1.341,-0.023 -2.412,-0.431 -3.219,-1.226 -0.81,-0.794 -1.203,-1.775 -1.182,-2.942 0.016,-0.868 0.252,-1.592 0.711,-2.173 0.457,-0.577 1.102,-0.968 1.935,-1.165zm-0.285 -2.787c-0.012,0.632 0.188,1.151 0.592,1.56 0.408,0.409 0.941,0.62 1.601,0.631 0.642,0.011 1.175,-0.179 1.593,-0.571 0.417,-0.39 0.628,-0.876 0.639,-1.451 0.011,-0.604 -0.19,-1.112 -0.606,-1.529 -0.416,-0.418 -0.937,-0.633 -1.57,-0.644 -0.635,-0.01 -1.167,0.182 -1.594,0.574 -0.429,0.394 -0.645,0.872 -0.655,1.43zm-0.647 6.163c-0.009,0.467 0.098,0.923 0.314,1.363 0.217,0.443 0.545,0.786 0.988,1.034 0.441,0.247 0.916,0.377 1.427,0.386 0.799,0.013 1.461,-0.227 1.988,-0.725 0.528,-0.495 0.798,-1.132 0.812,-1.909 0.013,-0.791 -0.24,-1.449 -0.766,-1.974 -0.524,-0.527 -1.19,-0.796 -1.994,-0.81 -0.783,-0.014 -1.437,0.231 -1.961,0.732 -0.524,0.505 -0.795,1.138 -0.808,1.903zm11.674 0.258l1.732 -0.296c0.204,0.825 0.559,1.426 1.066,1.807 0.51,0.38 1.096,0.543 1.76,0.486 0.8,-0.069 1.451,-0.424 1.95,-1.065 0.501,-0.643 0.71,-1.453 0.623,-2.433 -0.085,-0.934 -0.414,-1.645 -0.993,-2.139 -0.581,-0.493 -1.303,-0.703 -2.165,-0.628 -0.536,0.045 -1.007,0.207 -1.418,0.483 -0.409,0.276 -0.719,0.615 -0.931,1.018l-1.576 -0.064 0.701 -6.952 6.729 -0.579 0.139 1.562 -5.399 0.465 -0.413 3.64c0.764,-0.627 1.593,-0.98 2.483,-1.057 1.182,-0.102 2.214,0.216 3.097,0.951 0.886,0.737 1.383,1.737 1.495,3.003 0.108,1.204 -0.157,2.277 -0.792,3.217 -0.774,1.149 -1.91,1.791 -3.409,1.92 -1.232,0.107 -2.268,-0.145 -3.107,-0.757 -0.837,-0.612 -1.363,-1.473 -1.572,-2.582zm13.372 -1.523l1.69 -0.473c0.29,0.8 0.708,1.361 1.252,1.688 0.548,0.326 1.147,0.427 1.802,0.303 0.789,-0.152 1.398,-0.572 1.827,-1.26 0.43,-0.691 0.551,-1.519 0.359,-2.485 -0.181,-0.919 -0.585,-1.593 -1.215,-2.024 -0.628,-0.432 -1.368,-0.566 -2.219,-0.403 -0.527,0.1 -0.979,0.311 -1.357,0.627 -0.38,0.316 -0.651,0.686 -0.82,1.108l-1.573 0.098 -0.041 -6.985 6.631 -1.269 0.305 1.54 -5.322 1.017 -0.023 3.664c0.692,-0.704 1.479,-1.139 2.357,-1.308 1.165,-0.222 2.224,-0.013 3.181,0.628 0.959,0.641 1.56,1.585 1.806,2.831 0.235,1.189 0.084,2.282 -0.448,3.281 -0.646,1.224 -1.709,1.979 -3.185,2.261 -1.215,0.232 -2.27,0.089 -3.169,-0.433 -0.9,-0.522 -1.512,-1.324 -1.838,-2.406z"/>
   <path class="fil0" d="M644.251 478.697l-1.634 -0.313 2.027 -10.264c-0.467,0.295 -1.056,0.566 -1.768,0.812 -0.717,0.248 -1.345,0.416 -1.89,0.502l0.307 -1.555c1,-0.25 1.901,-0.609 2.706,-1.081 0.802,-0.473 1.404,-0.964 1.803,-1.477l1.053 0.201 -2.604 13.175zm10.361 -5.964c-0.678,-0.285 -1.172,-0.665 -1.481,-1.146 -0.307,-0.476 -0.445,-1.038 -0.412,-1.682 0.052,-0.973 0.45,-1.769 1.194,-2.393 0.747,-0.626 1.705,-0.91 2.883,-0.848 1.185,0.06 2.12,0.448 2.807,1.163 0.684,0.714 1.001,1.556 0.948,2.529 -0.033,0.618 -0.224,1.148 -0.577,1.591 -0.357,0.44 -0.875,0.768 -1.56,0.982 0.816,0.31 1.427,0.772 1.831,1.391 0.401,0.615 0.583,1.338 0.537,2.162 -0.06,1.144 -0.522,2.079 -1.38,2.814 -0.864,0.735 -1.965,1.067 -3.302,0.998 -1.339,-0.069 -2.396,-0.513 -3.176,-1.335 -0.78,-0.823 -1.137,-1.816 -1.077,-2.982 0.047,-0.867 0.311,-1.582 0.79,-2.147 0.476,-0.561 1.135,-0.929 1.975,-1.097zm-0.188 -2.796c-0.033,0.631 0.149,1.158 0.537,1.58 0.392,0.422 0.919,0.652 1.578,0.686 0.642,0.033 1.18,-0.139 1.612,-0.516 0.43,-0.377 0.66,-0.854 0.69,-1.429 0.031,-0.603 -0.151,-1.117 -0.551,-1.549 -0.402,-0.431 -0.914,-0.663 -1.546,-0.697 -0.635,-0.032 -1.174,0.143 -1.615,0.519 -0.441,0.379 -0.675,0.85 -0.705,1.406zm-0.865 6.138c-0.025,0.466 0.065,0.925 0.266,1.372 0.2,0.45 0.518,0.806 0.951,1.069 0.432,0.261 0.902,0.407 1.413,0.434 0.796,0.041 1.467,-0.177 2.012,-0.657 0.545,-0.476 0.837,-1.103 0.879,-1.881 0.043,-0.789 -0.189,-1.455 -0.695,-1.998 -0.506,-0.544 -1.161,-0.836 -1.964,-0.877 -0.783,-0.041 -1.444,0.18 -1.986,0.663 -0.542,0.487 -0.834,1.11 -0.876,1.875zm11.771 0.916l1.578 -0.311c0.214,0.723 0.53,1.232 0.946,1.526 0.416,0.292 0.921,0.41 1.518,0.347 0.51,-0.052 0.945,-0.213 1.303,-0.484 0.359,-0.27 0.642,-0.608 0.847,-1.018 0.206,-0.409 0.355,-0.95 0.453,-1.617 0.093,-0.67 0.108,-1.344 0.034,-2.022 -0.007,-0.071 -0.023,-0.182 -0.044,-0.324 -0.277,0.551 -0.685,1.022 -1.223,1.403 -0.541,0.384 -1.146,0.61 -1.813,0.679 -1.121,0.115 -2.109,-0.186 -2.968,-0.904 -0.859,-0.718 -1.358,-1.728 -1.497,-3.034 -0.144,-1.349 0.142,-2.474 0.862,-3.38 0.721,-0.908 1.69,-1.424 2.906,-1.55 0.877,-0.09 1.704,0.063 2.484,0.45 0.776,0.39 1.4,0.997 1.871,1.819 0.469,0.821 0.791,2.049 0.965,3.683 0.181,1.696 0.14,3.068 -0.126,4.116 -0.27,1.044 -0.746,1.866 -1.429,2.469 -0.684,0.603 -1.522,0.955 -2.519,1.058 -1.057,0.109 -1.95,-0.089 -2.681,-0.598 -0.73,-0.507 -1.22,-1.276 -1.467,-2.308zm6.164 -6.571c-0.101,-0.934 -0.432,-1.653 -0.997,-2.149 -0.568,-0.498 -1.205,-0.711 -1.92,-0.637 -0.734,0.076 -1.344,0.44 -1.829,1.088 -0.482,0.651 -0.674,1.446 -0.574,2.387 0.09,0.848 0.424,1.507 0.999,1.983 0.575,0.476 1.242,0.673 2.005,0.594 0.769,-0.08 1.371,-0.408 1.807,-0.988 0.441,-0.581 0.608,-1.339 0.509,-2.278zm13.551 6.574l-1.617 0.398 -2.57 -10.146c-0.297,0.461 -0.713,0.951 -1.252,1.471 -0.544,0.522 -1.042,0.936 -1.499,1.241l-0.389 -1.537c0.798,-0.642 1.46,-1.343 1.988,-2.106 0.525,-0.763 0.859,-1.457 1,-2.088l1.04 -0.255 3.299 13.022z"/>
  </g>
 </g>
</svg>
